<svg width="211" height="211" viewBox="0 0 211 211" fill="none" xmlns="http://www.w3.org/2000/svg">
<path d="M105.5 180.43C150.689 180.43 187.322 178.292 187.322 175.653C187.322 173.015 150.689 170.876 105.5 170.876C60.3112 170.876 23.6785 173.015 23.6785 175.653C23.6785 178.292 60.3112 180.43 105.5 180.43Z" fill="#F5F5F5"/>
<path d="M159.208 80.6822C158.938 80.8805 158.731 81.0282 158.495 81.1843C158.258 81.3405 158.035 81.484 157.803 81.6359C157.343 81.9228 156.874 82.2056 156.406 82.4799C155.456 83.0116 154.49 83.5096 153.49 83.9527C152.491 84.4042 151.468 84.8014 150.426 85.1427C149.907 85.3284 149.367 85.4719 148.831 85.6196L148.016 85.8179L147.814 85.8685L147.67 85.8981L147.497 85.9318C147.252 85.9776 147.004 86.0017 146.755 86.0036C146.24 86.0144 145.728 85.93 145.244 85.7546C144.804 85.5942 144.391 85.3665 144.02 85.0794C143.428 84.6093 142.923 84.0378 142.53 83.3914C141.915 82.3596 141.449 81.2457 141.146 80.0829C140.583 77.9806 140.288 75.8154 140.269 73.639C140.26 73.3424 140.36 73.0529 140.551 72.8256C140.742 72.5982 141.009 72.4487 141.303 72.4055C141.596 72.3623 141.896 72.4284 142.144 72.5912C142.392 72.754 142.571 73.0022 142.649 73.2887V73.3478C143.148 75.2324 143.783 77.0786 144.548 78.8718C144.875 79.6607 145.3 80.4051 145.814 81.0873C145.98 81.3093 146.188 81.497 146.426 81.6401C146.59 81.7119 146.569 81.6401 146.565 81.6401C146.861 81.5129 147.164 81.403 147.472 81.3109C147.894 81.1379 148.354 80.9818 148.789 80.7919C149.667 80.4374 150.532 80.0154 151.388 79.5892C152.245 79.163 153.076 78.6946 153.92 78.205C154.342 77.9687 154.764 77.7197 155.157 77.4665L156.321 76.7196L156.419 76.6563C156.951 76.3031 157.602 76.1736 158.23 76.296C158.857 76.4183 159.411 76.7825 159.773 77.3101C160.134 77.8376 160.273 78.486 160.16 79.1154C160.048 79.7447 159.692 80.3045 159.17 80.6737L159.208 80.6822Z" fill="#FFB573"/>
<path d="M142.805 75.251L142.931 71.74L139.015 72.9807C138.966 73.6365 139.127 74.291 139.474 74.8494C139.822 75.4078 140.338 75.8411 140.948 76.0866L142.805 75.251Z" fill="#FFB573"/>
<path d="M140.72 69.668L139.285 70.7778C139.154 70.8792 139.051 71.012 138.984 71.1639C138.918 71.3158 138.891 71.482 138.906 71.6472L139.015 72.9807L142.931 71.74L142.244 70.0731C142.185 69.9322 142.095 69.8066 141.981 69.7061C141.866 69.6056 141.729 69.533 141.582 69.4938C141.435 69.4546 141.28 69.4499 141.131 69.4801C140.981 69.5103 140.841 69.5746 140.72 69.668Z" fill="#FFB573"/>
<path d="M158.693 74.5885C155.954 75.0569 153.076 78.0194 153.076 78.0194C153.076 78.0194 153.777 81.2434 154.342 84.4549C161.584 83.5222 163.871 73.7065 158.693 74.5885Z" fill="#4F4CFA"/>
<path d="M155.477 78.5426C155.929 86.9118 155.929 95.2993 155.477 103.669L172.649 104.935C174.155 95.9206 173.864 87.3751 174.029 78.838C174.075 76.3862 173.349 74.1327 170.906 73.9006C170.003 73.8162 167.952 73.7909 167.154 73.8078C164.744 73.8355 162.337 74.0046 159.946 74.3142C159.432 74.4028 158.921 74.5041 158.44 74.618C157.561 74.8147 156.78 75.3173 156.238 76.0362C155.695 76.7551 155.426 77.6434 155.477 78.5426Z" fill="#4F4CFA"/>
<path opacity="0.2" d="M170.269 78.8127C170.269 78.8127 171.475 82.7626 173.953 83.6699C173.953 82.0959 173.978 80.5218 174.007 78.952L170.269 78.8127Z" fill="black"/>
<path d="M155.503 102.474C155.503 102.474 143.109 114.425 138.859 123.27C134.441 132.47 126.457 149.958 126.457 149.958L129.081 151.27C129.081 151.27 144.307 131.461 145.324 126.077C150.878 116.67 164.897 112.332 167.298 104.255C162.2 102.74 155.503 102.474 155.503 102.474Z" fill="#FFB573"/>
<path d="M161.132 103.669C161.132 103.669 159.259 120.578 159.824 129.98C160.449 140.281 165.732 158.913 165.732 158.913L168.264 158.782C168.264 158.782 169.028 142.902 166.12 131.542C167.808 124.009 172.763 112.974 172.619 104.93C168.827 104.221 164.988 103.799 161.132 103.669Z" fill="#FFB573"/>
<path d="M169.994 158.647C169.361 158.052 168.492 157.381 168.357 155.722C168.357 155.722 165.336 157.111 165.547 158.254C165.758 159.398 165.703 163.061 163.702 165.356C163.424 165.677 164.259 166.049 165.184 165.703C166.753 165.116 166.893 164.529 167.294 163.2C167.64 162.061 169.357 160.871 170.049 160.221C170.627 159.664 170.627 159.242 169.994 158.647Z" fill="#FFB573"/>
<path d="M128.351 153.608C128.714 152.823 128.605 151.705 129.529 150.527C129.529 150.527 127.841 148.443 126.976 149.202C126.111 149.962 123.6 150.574 120.713 149.624C120.291 149.489 120.063 150.713 120.958 151.122C122.443 151.802 123.541 152.283 124.807 152.861C125.887 153.355 126.073 153.705 126.887 154.173C127.583 154.549 127.984 154.414 128.351 153.608Z" fill="#FFB573"/>
<path d="M161.373 74.3564C163.441 73.5124 163.259 71.7062 162.749 70.0267L167.205 66.0219C166.863 68.3977 166.454 72.3139 168.18 73.7993C168.18 73.7993 167.205 77.0276 162.495 77.8505C160.651 77.1458 160.162 74.7657 161.373 74.3564Z" fill="#FFB573"/>
<path opacity="0.2" d="M165.289 67.6255L162.757 70.0224C162.892 70.4347 162.99 70.8585 163.048 71.2884C163.728 71.3475 165.547 70.36 165.58 69.305C165.566 68.7339 165.468 68.168 165.289 67.6255Z" fill="black"/>
<path d="M178.147 58.734L176.101 55.5394L180.084 54.5393C180.084 54.5393 181.35 57.738 180.084 58.5567L178.147 58.734Z" fill="#FFB573"/>
<path d="M170.665 74.656L170.897 74.5589L171.184 74.4281L171.775 74.1454C172.168 73.947 172.56 73.7234 172.944 73.5039C173.711 73.055 174.448 72.5574 175.151 72.0143C175.841 71.4751 176.489 70.884 177.088 70.2461C177.379 69.9254 177.654 69.5962 177.932 69.2586L178.278 68.7902C178.357 68.6779 178.426 68.5593 178.485 68.4357C178.54 68.3168 178.587 68.1941 178.624 68.0686C178.671 67.912 178.699 67.7506 178.709 67.5875C178.759 67.1317 178.814 66.676 178.831 66.2202C178.848 65.7645 178.865 65.3003 178.873 64.8403C178.882 64.3803 178.873 63.9161 178.818 63.4561C178.753 62.5285 178.625 61.6064 178.434 60.6962C178.337 60.2405 178.24 59.7805 178.105 59.3374C178.046 59.1137 177.97 58.8943 177.898 58.6749L177.692 58.0714L177.628 57.8984C177.531 57.6253 177.535 57.326 177.641 57.0558C177.746 56.7857 177.946 56.5627 178.203 56.4281C178.46 56.2934 178.756 56.2562 179.039 56.3232C179.321 56.3902 179.569 56.557 179.738 56.7927C179.945 57.0755 180.089 57.2823 180.245 57.5312C180.401 57.7802 180.532 58.0081 180.667 58.2529C180.937 58.7382 181.173 59.2361 181.397 59.7425C181.826 60.7613 182.163 61.8163 182.405 62.8949C182.656 63.9781 182.814 65.0807 182.878 66.1907C182.916 66.7477 182.916 67.3005 182.912 67.8787C182.919 68.2234 182.895 68.568 182.84 68.9084C182.779 69.2797 182.687 69.6452 182.566 70.0013C182.441 70.3505 182.291 70.6904 182.118 71.0184L181.979 71.2631L181.865 71.4572L181.637 71.8286C181.327 72.323 180.989 72.7992 180.625 73.255C179.907 74.1584 179.106 74.9921 178.232 75.7448C177.37 76.4893 176.447 77.1599 175.472 77.7493C174.982 78.0362 174.484 78.3105 173.97 78.5637C173.712 78.6903 173.455 78.8127 173.185 78.9309L172.763 79.0997L172.286 79.2769C171.689 79.4921 171.032 79.466 170.454 79.2042C169.877 78.9424 169.424 78.4656 169.193 77.8751C168.961 77.2846 168.969 76.6271 169.215 76.0424C169.461 75.4578 169.925 74.9922 170.509 74.7446L170.665 74.656Z" fill="#FFB573"/>
<path d="M168.661 73.7994C170.678 73.7994 174.43 72.2042 174.43 72.2042C174.43 72.2042 176.645 76.2892 176.962 78.4329C175.677 80.336 173.766 81.7279 171.56 82.3659C169.1 81.0746 167.981 77.8506 168.661 73.7994Z" fill="#4F4CFA"/>
<path d="M149.43 122.903C149.43 122.903 144.51 120.886 141.733 117.417C144.856 111.442 152.123 102.968 154.262 102.339C154.531 101.645 154.845 100.97 155.203 100.318L169.129 102.39C168.378 109.15 153.789 119.548 149.43 122.903Z" fill="#263238"/>
<path opacity="0.2" d="M159.748 109.015C157.841 109.885 155.95 114.603 155.38 118.337C158.205 116.135 160.896 113.768 163.441 111.248C161.9 110.024 160.128 108.846 159.748 109.015Z" fill="black"/>
<path d="M159.119 124.106C159.119 124.106 162.732 125.11 169.1 123.996C170.264 117.607 174.873 107.644 173.375 104.698C173.67 104.035 173.735 103.293 173.56 102.588L156.385 100.478C154.975 102.614 158.967 117.738 159.119 124.106Z" fill="#263238"/>
<path d="M176.396 52.5981L178.569 52.1761C178.724 52.1481 178.883 52.175 179.019 52.2521C179.156 52.3292 179.261 52.4516 179.316 52.5981L180.067 54.5519L176.084 55.5521L175.864 53.3239C175.844 53.158 175.888 52.9908 175.987 52.856C176.086 52.7212 176.232 52.629 176.396 52.5981Z" fill="#FFB573"/>
<path d="M162.892 58.7044C160.158 58.4132 158.896 60.0506 160.643 63.2451C162.833 60.173 162.892 58.7044 162.892 58.7044Z" fill="#263238"/>
<path d="M169.184 63.5532C168.391 66.6464 168.083 68.4948 166.192 69.7988C163.352 71.7569 159.765 69.5793 159.622 66.3131C159.491 63.3591 160.807 58.8141 164.112 58.1558C164.839 58.0082 165.592 58.0488 166.299 58.2738C167.006 58.4988 167.643 58.9007 168.152 59.4413C168.66 59.982 169.021 60.6435 169.202 61.3631C169.383 62.0828 169.377 62.8366 169.184 63.5532Z" fill="#FFB573"/>
<path d="M168.501 66.5325L166.192 65.2665C166.192 65.2665 166.517 63.3464 167.728 62.667C166.678 62.0846 165.977 60.5781 166.04 59.8776C164.39 60.2996 161.972 60.0084 160.976 59.4134C159.166 58.3204 159.238 56.2104 160.618 55.4086C161.069 56.8096 161.791 57.5439 163.496 56.7421C165.201 55.9403 167.581 55.6491 168.479 56.9869C169.378 58.3246 171.585 57.2485 172.805 58.3964C173.092 58.6366 173.308 58.9499 173.432 59.3032C173.555 59.6565 173.581 60.0365 173.506 60.4032C173.431 60.7698 173.259 61.1095 173.007 61.3861C172.755 61.6628 172.433 61.8662 172.075 61.9749C174.181 63.6545 172.29 66.1696 168.501 66.5325Z" fill="#263238"/>
<path d="M171.167 61.8146C171.769 61.7082 172.388 61.8266 172.908 62.1472C173.428 62.4677 173.812 62.9681 173.986 63.5532C173.299 62.8527 171.957 61.8525 171.167 61.8146Z" fill="#263238"/>
<path d="M171.332 61.7766C171.745 62.0257 172.236 62.114 172.71 62.0245C173.184 61.935 173.608 61.6739 173.902 61.2913C173.193 61.612 171.919 61.9749 171.332 61.7766Z" fill="#263238"/>
<path d="M169.99 66.3426C169.534 67.0064 168.832 67.4617 168.04 67.6086C166.994 67.7901 166.576 66.8279 166.956 65.8953C167.298 65.0513 168.256 63.9457 169.264 64.2073C170.273 64.4689 170.543 65.5282 169.99 66.3426Z" fill="#FFB573"/>
<path d="M164.272 63.5152C164.221 63.7684 164.048 63.9372 163.88 63.9372C163.711 63.9372 163.618 63.6714 163.669 63.4182C163.719 63.165 163.892 62.9962 164.057 62.9962C164.221 62.9962 164.318 63.262 164.272 63.5152Z" fill="#263238"/>
<path d="M161.39 62.9624C161.343 63.2156 161.166 63.3844 161.001 63.3844C160.837 63.3844 160.74 63.1185 160.786 62.8611C160.833 62.6037 161.014 62.4391 161.179 62.4602C161.343 62.4813 161.44 62.7092 161.39 62.9624Z" fill="#263238"/>
<path d="M162.183 63.2451C161.731 63.9653 161.181 64.6199 160.55 65.1905C160.7 65.3483 160.883 65.4716 161.086 65.5518C161.288 65.6319 161.506 65.6671 161.723 65.6547L162.183 63.2451Z" fill="#ED893E"/>
<path d="M162.723 66.7098C162.531 66.7199 162.338 66.7057 162.149 66.6676C162.13 66.6635 162.112 66.6521 162.1 66.6356C162.089 66.6192 162.084 66.599 162.086 66.5789C162.088 66.5688 162.092 66.5593 162.098 66.5508C162.104 66.5423 162.111 66.535 162.12 66.5295C162.129 66.524 162.138 66.5203 162.148 66.5186C162.159 66.517 162.169 66.5174 162.179 66.5199C162.494 66.5886 162.821 66.5815 163.133 66.4994C163.444 66.4172 163.732 66.2622 163.972 66.0472C163.986 66.0327 164.006 66.0243 164.026 66.0239C164.046 66.0235 164.065 66.0311 164.08 66.0451C164.095 66.0591 164.103 66.0783 164.103 66.0985C164.104 66.1187 164.096 66.1382 164.082 66.1527C163.711 66.4951 163.228 66.6928 162.723 66.7098Z" fill="#263238"/>
<path d="M165.846 62.3336C165.817 62.3299 165.789 62.318 165.766 62.2994C165.743 62.2808 165.725 62.2561 165.715 62.2281C165.663 62.0441 165.568 61.8749 165.438 61.7342C165.308 61.5935 165.148 61.4851 164.968 61.4179C164.93 61.407 164.897 61.3815 164.877 61.3467C164.858 61.312 164.852 61.2708 164.863 61.2322C164.868 61.2129 164.876 61.1947 164.889 61.1788C164.901 61.1629 164.916 61.1496 164.933 61.1398C164.951 61.1299 164.97 61.1237 164.99 61.1214C165.009 61.1192 165.029 61.121 165.049 61.1267C165.278 61.2052 165.484 61.3378 165.651 61.5135C165.818 61.6891 165.94 61.9024 166.006 62.1353C166.013 62.1541 166.016 62.1741 166.014 62.1939C166.013 62.2138 166.008 62.2332 165.998 62.2509C165.989 62.2687 165.977 62.2844 165.962 62.2972C165.946 62.3099 165.929 62.3195 165.909 62.3252C165.889 62.3321 165.868 62.335 165.846 62.3336Z" fill="#263238"/>
<path d="M160.453 61.0634C160.418 61.0561 160.386 61.0367 160.364 61.0085C160.352 60.9928 160.342 60.9747 160.337 60.9553C160.331 60.936 160.329 60.9157 160.332 60.8956C160.334 60.8756 160.341 60.8562 160.35 60.8387C160.36 60.8211 160.374 60.8057 160.39 60.7933C160.574 60.6365 160.793 60.5269 161.029 60.474C161.265 60.421 161.511 60.4263 161.744 60.4895C161.763 60.4952 161.781 60.5047 161.796 60.5175C161.812 60.5303 161.824 60.546 161.833 60.5637C161.842 60.5815 161.848 60.6009 161.849 60.6207C161.851 60.6406 161.848 60.6606 161.841 60.6794C161.829 60.7173 161.802 60.7487 161.766 60.7668C161.731 60.785 161.689 60.7884 161.651 60.7764C161.465 60.7309 161.271 60.7301 161.085 60.7741C160.899 60.8182 160.725 60.9057 160.58 61.0296C160.562 61.0439 160.542 61.0542 160.52 61.06C160.498 61.0659 160.475 61.067 160.453 61.0634Z" fill="#263238"/>
<path d="M104.339 144.332H96.9586L95.7981 119.38H105.5L104.339 144.332Z" fill="#4F4CFA"/>
<path opacity="0.2" d="M105.124 127.444C103.848 128.446 102.272 128.991 100.649 128.991C99.0261 128.991 97.4501 128.446 96.1737 127.444L95.7939 119.384H105.5L105.124 127.444Z" fill="black"/>
<path d="M78.914 106.736C68.6721 106.736 58.9323 99.0729 56.2526 88.9112L51.484 70.7947C51.0416 69.2612 50.96 67.6461 51.2455 66.0758C51.531 64.5055 52.1759 63.0225 53.1298 61.7428C54.0779 60.5362 55.2925 59.5654 56.6784 58.9065C58.0643 58.2476 59.5839 57.9185 61.1183 57.9448H75.7068C76.6164 57.9764 77.4781 58.3599 78.1104 59.0145C78.7427 59.6691 79.0961 60.5436 79.0961 61.4538C79.0961 62.3639 78.7427 63.2384 78.1104 63.893C77.4781 64.5476 76.6164 64.9311 75.7068 64.9627H61.1225C60.6628 64.9344 60.203 65.0153 59.7806 65.1986C59.3581 65.382 58.985 65.6626 58.6918 66.0177C58.3958 66.4478 58.2037 66.9408 58.1305 67.4577C58.0572 67.9747 58.1049 68.5016 58.2698 68.997L63.0468 87.1177C64.9078 94.1777 71.8835 99.7102 78.9224 99.7102C79.3935 99.6938 79.863 99.7725 80.303 99.9415C80.7429 100.11 81.1444 100.366 81.4834 100.694C81.8224 101.021 82.092 101.414 82.2761 101.847C82.4603 102.281 82.5552 102.748 82.5552 103.219C82.5552 103.69 82.4603 104.157 82.2761 104.591C82.092 105.025 81.8224 105.417 81.4834 105.744C81.1444 106.072 80.7429 106.328 80.303 106.497C79.863 106.666 79.3935 106.744 78.9224 106.728L78.914 106.736Z" fill="#4F4CFA"/>
<path d="M122.38 106.736C121.909 106.753 121.44 106.674 121 106.505C120.56 106.336 120.158 106.08 119.819 105.753C119.48 105.425 119.21 105.033 119.026 104.599C118.842 104.165 118.747 103.699 118.747 103.228C118.747 102.756 118.842 102.29 119.026 101.856C119.21 101.422 119.48 101.03 119.819 100.702C120.158 100.375 120.56 100.119 121 99.9499C121.44 99.781 121.909 99.7023 122.38 99.7186C129.419 99.7186 136.395 94.1862 138.256 87.1261L143.029 69.0055C143.193 68.51 143.241 67.9831 143.168 67.4662C143.095 66.9492 142.902 66.4563 142.607 66.0261C142.313 65.6711 141.94 65.3904 141.518 65.2071C141.095 65.0237 140.635 64.9429 140.176 64.9711H125.591C125.12 64.9875 124.651 64.9088 124.211 64.7398C123.771 64.5708 123.369 64.315 123.03 63.9876C122.691 63.6601 122.422 63.2678 122.238 62.8339C122.054 62.4 121.959 61.9335 121.959 61.4622C121.959 60.9909 122.054 60.5244 122.238 60.0905C122.422 59.6567 122.691 59.2643 123.03 58.9369C123.369 58.6094 123.771 58.3536 124.211 58.1846C124.651 58.0156 125.12 57.9369 125.591 57.9533H140.176C141.71 57.9272 143.23 58.2565 144.615 58.9154C146.001 59.5743 147.216 60.5449 148.164 61.7513C149.118 63.031 149.763 64.5139 150.049 66.0843C150.334 67.6546 150.252 69.2696 149.81 70.8032L145.037 88.9196C142.358 99.073 132.614 106.736 122.38 106.736Z" fill="#4F4CFA"/>
<g opacity="0.2">
<path d="M79.2136 61.4643C79.2136 60.5339 78.8442 59.6415 78.1867 58.9831C77.5292 58.3248 76.6372 57.9544 75.7067 57.9533H63.4983L64.3423 64.9711H75.7067C76.6368 64.9711 77.5288 64.6017 78.1864 63.944C78.8441 63.2864 79.2136 62.3944 79.2136 61.4643Z" fill="black"/>
<path d="M78.9139 99.7186C74.9429 99.7186 70.9972 97.9631 67.9714 95.161L68.4652 99.2502C68.6832 101.069 69.0602 102.865 69.5919 104.618C72.5088 105.991 75.6901 106.711 78.9139 106.728C79.3849 106.744 79.8544 106.666 80.2944 106.497C80.7344 106.328 81.1359 106.072 81.4749 105.744C81.8139 105.417 82.0835 105.025 82.2676 104.591C82.4517 104.157 82.5466 103.69 82.5466 103.219C82.5466 102.748 82.4517 102.281 82.2676 101.847C82.0835 101.414 81.8139 101.021 81.4749 100.694C81.1359 100.366 80.7344 100.11 80.2944 99.9415C79.8544 99.7725 79.3849 99.6938 78.9139 99.7102V99.7186Z" fill="black"/>
<path d="M118.865 103.23C118.866 104.159 119.236 105.051 119.893 105.708C120.551 106.366 121.442 106.735 122.372 106.736C125.597 106.72 128.779 106 131.698 104.626C132.229 102.874 132.607 101.077 132.825 99.2586L133.314 95.1695C130.293 97.9715 126.347 99.7271 122.372 99.7271C121.443 99.7282 120.552 100.097 119.895 100.754C119.237 101.41 118.867 102.301 118.865 103.23Z" fill="black"/>
<path d="M125.591 57.9533C124.682 57.9848 123.82 58.3683 123.188 59.0229C122.556 59.6775 122.202 60.5521 122.202 61.4622C122.202 62.3723 122.556 63.2469 123.188 63.9015C123.82 64.5561 124.682 64.9396 125.591 64.9711H136.952L137.796 57.9533H125.591Z" fill="black"/>
</g>
<path d="M97.5495 48.8972H94.5618V49.3192H97.5495V48.8972Z" fill="#4F4CFA"/>
<path d="M91.9623 48.8972H81.2351V49.3192H91.9623V48.8972Z" fill="#4F4CFA"/>
<path d="M100.647 124.148C93.3024 124.148 86.2266 121.385 80.8257 116.408C75.4247 111.431 72.0939 104.604 71.4952 97.2837L67.828 52.4082C67.8064 52.1491 67.8388 51.8884 67.9232 51.6425C68.0076 51.3966 68.1421 51.1709 68.3182 50.9797C68.4944 50.7885 68.7083 50.636 68.9464 50.5317C69.1846 50.4275 69.4418 50.3738 69.7017 50.3741H131.596C131.856 50.3745 132.113 50.4286 132.351 50.533C132.589 50.6375 132.802 50.79 132.978 50.9811C133.154 51.1722 133.289 51.3976 133.374 51.6432C133.458 51.8888 133.491 52.1493 133.47 52.4082L129.803 97.2837C129.203 104.604 125.872 111.431 120.47 116.408C115.068 121.385 107.992 124.148 100.647 124.148Z" fill="#4F4CFA"/>
<path opacity="0.1" d="M91.1983 116.05C91.3225 116.169 91.4008 116.329 91.4194 116.5C91.4381 116.671 91.396 116.843 91.3004 116.987C91.2049 117.13 91.062 117.235 90.8968 117.284C90.7315 117.332 90.5544 117.321 90.3965 117.253C86.4323 115.431 83.0243 112.587 80.5221 109.014C78.02 105.44 76.5138 101.265 76.1582 96.9165L72.8329 56.2779C72.8207 56.1245 72.8403 55.9702 72.8904 55.8247C72.9406 55.6792 73.0203 55.5456 73.1245 55.4323C73.2287 55.319 73.3551 55.2285 73.4959 55.1663C73.6367 55.1041 73.7888 55.0717 73.9427 55.071H78.9856C79.2666 55.0703 79.5374 55.1761 79.7434 55.3672C79.9494 55.5583 80.0752 55.8205 80.0955 56.1007L83.3322 98.7227C83.7799 105.244 86.5619 111.387 91.1688 116.025L91.1983 116.05Z" fill="white"/>
<path d="M115.679 153.228H85.6196C85.4303 153.228 85.2434 153.186 85.0722 153.105C84.901 153.024 84.7496 152.907 84.6288 152.761C84.508 152.615 84.4208 152.445 84.3732 152.261C84.3257 152.078 84.319 151.887 84.3536 151.701L85.2947 146.7C85.5189 145.508 86.1522 144.432 87.0853 143.658C88.0183 142.884 89.1925 142.459 90.4051 142.459H110.893C112.106 142.459 113.28 142.884 114.213 143.658C115.146 144.432 115.779 145.508 116.004 146.7L116.945 151.701C116.979 151.887 116.973 152.078 116.925 152.261C116.877 152.445 116.79 152.615 116.669 152.761C116.549 152.907 116.397 153.024 116.226 153.105C116.055 153.186 115.868 153.228 115.679 153.228Z" fill="#4F4CFA"/>
<path opacity="0.2" d="M116.945 151.701H84.3536C84.319 151.887 84.3257 152.078 84.3732 152.261C84.4208 152.445 84.508 152.615 84.6288 152.761C84.7496 152.907 84.901 153.024 85.0722 153.105C85.2434 153.186 85.4303 153.228 85.6196 153.228H115.679C115.868 153.228 116.055 153.186 116.226 153.105C116.397 153.024 116.549 152.907 116.669 152.761C116.79 152.615 116.877 152.445 116.925 152.261C116.973 152.078 116.979 151.887 116.945 151.701Z" fill="black"/>
<path d="M124.954 153.228H76.3398C75.6312 153.228 75.0569 153.803 75.0569 154.511V173.315C75.0569 174.024 75.6312 174.598 76.3398 174.598H124.954C125.663 174.598 126.237 174.024 126.237 173.315V154.511C126.237 153.803 125.663 153.228 124.954 153.228Z" fill="#4F4CFA"/>
<path opacity="0.7" d="M124.954 153.228H76.3398C75.6312 153.228 75.0569 153.803 75.0569 154.511V173.315C75.0569 174.024 75.6312 174.598 76.3398 174.598H124.954C125.663 174.598 126.237 174.024 126.237 173.315V154.511C126.237 153.803 125.663 153.228 124.954 153.228Z" fill="white"/>
<path d="M59.0251 93.8992C57.8857 87.9912 67.4271 86.2104 71.7231 89.9788C75.9178 93.6587 73.7318 96.8912 79.6989 95.9206C85.666 94.95 86.2737 100.668 83.1509 102.753C80.0281 104.837 85.0161 109.133 79.7369 110.982C73.2043 113.273 67.0769 111.197 62.6712 109.024C58.2655 106.85 53.7881 96.5705 59.0251 93.8992Z" fill="#263238"/>
<path d="M78.0953 129.816C78.0953 129.816 98.5243 141.032 97.4566 148.122C94.8486 164.099 94.7769 172.56 94.7769 172.56H91.9158C91.9158 172.56 89.2023 156.575 90.6497 148.413C88.8689 144.754 66.9334 145.514 68.4188 129.799L78.0953 129.816Z" fill="#263238"/>
<path opacity="0.2" d="M68.4949 133.2C69.3389 139.176 74.2636 142.142 79.2601 144.003C75.5676 139.821 71.3603 135.344 68.4949 133.2Z" fill="black"/>
<path d="M95.0217 172.028H91.6795C91.609 172.026 91.5402 172.05 91.487 172.096C91.4337 172.142 91.3999 172.207 91.3925 172.277L91.0549 175.02C91.0526 175.105 91.0675 175.19 91.0985 175.269C91.1296 175.348 91.1763 175.42 91.2357 175.48C91.2952 175.541 91.3662 175.589 91.4446 175.622C91.523 175.654 91.6072 175.671 91.6921 175.67C93.1607 175.645 93.8696 175.565 95.7264 175.565C96.8658 175.565 97.5621 175.683 99.1404 175.683C100.719 175.683 100.723 174.172 100.056 174.033C97.1022 173.412 96.6802 173.071 95.6589 172.26C95.4787 172.114 95.2542 172.032 95.0217 172.028Z" fill="#263238"/>
<path d="M76.0697 107.943C76.9813 108.226 77.9434 108.53 78.8845 108.787C79.8255 109.045 80.7793 109.344 81.7245 109.581C82.6698 109.817 83.6193 110.045 84.5519 110.222C85.0119 110.302 85.4803 110.391 85.9277 110.442L86.2653 110.488L86.5902 110.513L86.9109 110.539H86.9658C86.9658 110.539 86.9236 110.568 86.9405 110.572C86.9573 110.577 87.0038 110.547 87.0713 110.454C87.2481 110.175 87.3765 109.869 87.4511 109.547C87.6624 108.67 87.7812 107.773 87.8056 106.871C87.8562 105.918 87.8478 104.939 87.8056 103.96C87.7634 102.981 87.7043 101.972 87.6283 101.006V100.972C87.614 100.745 87.6836 100.52 87.8239 100.341C87.9641 100.162 88.1653 100.041 88.3892 100C88.6131 99.9594 88.8441 100.002 89.0383 100.121C89.2326 100.239 89.3766 100.425 89.4429 100.643C90.033 102.66 90.4176 104.731 90.5908 106.825C90.6913 107.95 90.6573 109.084 90.4895 110.201C90.3831 110.877 90.1649 111.53 89.8438 112.134C89.6289 112.525 89.3426 112.873 88.9998 113.159C88.5985 113.493 88.1219 113.723 87.6114 113.83C87.4891 113.856 87.3582 113.877 87.2401 113.889H87.0586H86.0458L85.6238 113.868C85.0626 113.843 84.5308 113.775 83.9907 113.708C82.9272 113.569 81.8807 113.375 80.8721 113.142C78.8388 112.699 76.8336 112.135 74.867 111.454C74.4201 111.283 74.0561 110.946 73.8505 110.514C73.6449 110.082 73.6134 109.587 73.7625 109.132C73.9116 108.677 74.2299 108.297 74.6515 108.07C75.0731 107.843 75.5658 107.787 76.0275 107.914L76.0697 107.943Z" fill="#803E3C"/>
<path d="M88.7634 98.3682L86.3074 100.056C86.3074 100.056 86.4846 100.356 86.9404 101.086C87.3961 101.816 88.1557 102.263 88.8436 101.803C90.5527 100.947 88.7634 98.3682 88.7634 98.3682Z" fill="#7F3E3B"/>
<path d="M86.3539 98.6045L86.8898 97.9588C86.9824 97.8466 87.0988 97.7561 87.2305 97.6941C87.3621 97.632 87.5059 97.5998 87.6515 97.5998C87.7971 97.5998 87.9409 97.632 88.0725 97.6941C88.2042 97.7561 88.3206 97.8466 88.4132 97.9588L88.7635 98.3808L86.3074 100.069L86.1639 99.5202C86.1175 99.3638 86.1105 99.1983 86.1436 99.0385C86.1768 98.8787 86.249 98.7296 86.3539 98.6045Z" fill="#7F3E3B"/>
<path d="M78.9435 111.969C79.1123 115.046 78.8422 120.321 78.0995 129.816H63.1607C63.397 124.123 63.0467 122.004 59.6876 111.45C59.6071 111.196 59.5795 110.928 59.6065 110.663C59.6335 110.398 59.7146 110.142 59.8447 109.909C59.9748 109.676 60.1512 109.473 60.3629 109.311C60.5747 109.15 60.8174 109.033 61.076 108.969C62.453 108.615 63.8475 108.334 65.2538 108.125C67.4692 107.768 69.7073 107.571 71.9509 107.534C72.8287 107.534 73.7444 107.572 74.5926 107.623C75.7255 107.685 76.7955 108.163 77.5982 108.965C78.4009 109.767 78.8798 110.836 78.9435 111.969Z" fill="#7F3E3B"/>
<path opacity="0.2" d="M61.3798 111.957C61.6068 113.452 61.5409 114.977 61.1857 116.447C60.903 115.438 60.5865 114.358 60.2278 113.176L61.3798 111.957Z" fill="black"/>
<path opacity="0.2" d="M71.4825 115.012C71.4825 113.594 69.6426 111.822 68.3555 111.53C69.2839 112.054 71.0141 113.91 71.4825 115.012Z" fill="black"/>
<path d="M65.2454 100.542C65.8573 102.652 66.6295 106.568 65.2454 108.138C65.2454 108.138 66.0303 110.273 70.0351 109.918C74.4365 109.526 71.9425 107.547 71.9425 107.547C69.4907 107.184 69.4105 105.399 69.6637 103.685L65.2454 100.542Z" fill="#7F3E3B"/>
<path opacity="0.2" d="M67.0474 101.824L69.6638 103.685C69.5962 104.084 69.5637 104.488 69.5667 104.892C68.6341 104.837 67.2837 103.943 67.1022 102.989C67.0122 102.608 66.9936 102.213 67.0474 101.824Z" fill="black"/>
<path d="M61.823 98.1994C63.5658 101.369 64.2368 102.749 66.676 103.647C70.3474 104.994 73.85 102.162 73.103 98.5328C72.4152 95.2665 69.6806 90.6287 65.8699 90.8397C65.0296 90.8826 64.2142 91.1396 63.501 91.5862C62.7879 92.0328 62.2007 92.6543 61.7953 93.3917C61.3898 94.129 61.1796 94.9577 61.1844 95.7991C61.1893 96.6406 61.4091 97.4668 61.823 98.1994Z" fill="#7F3E3B"/>
<path d="M60.5865 93.6587C62.0635 91.6415 64.3845 95.9375 64.6588 97.2921C64.9331 98.6467 64.3043 100.554 62.1943 100.402C60.0843 100.25 59.004 95.8235 60.5865 93.6587Z" fill="#263238"/>
<path d="M60.2869 93.1312C63.4181 94.6673 65.2369 93.7726 66.5029 92.9793C67.7689 92.1859 72.2717 92.629 71.2504 91.6078C70.2292 90.5865 68.6551 89.675 66.0809 90.0759C63.5067 90.4768 60.2869 93.1312 60.2869 93.1312Z" fill="#263238"/>
<path d="M49.3403 171.682L45.9178 170.741C45.8578 170.725 45.7938 170.73 45.7373 170.756C45.6809 170.782 45.6356 170.828 45.6098 170.885L44.386 173.522C44.3567 173.588 44.3419 173.659 44.3428 173.731C44.3437 173.803 44.3601 173.874 44.391 173.939C44.4219 174.004 44.4665 174.061 44.5217 174.107C44.5769 174.153 44.6415 174.187 44.7109 174.206C45.9094 174.514 46.3989 174.143 47.7282 174.965C48.7284 175.582 50.0661 175.649 51.6106 175.649C52.9104 175.649 53.0581 174.294 52.4926 174.189C49.9606 173.716 50.2307 172.877 49.7918 172.011C49.743 171.929 49.6777 171.857 49.6 171.8C49.5224 171.744 49.434 171.703 49.3403 171.682Z" fill="#263238"/>
<path d="M73.9978 129.816C73.9978 129.816 71.8414 143.05 69.7778 153.819C69.4655 155.448 68.727 157.098 67.3091 157.963C59.9494 162.457 49.0576 172.024 49.0576 172.024L45.8926 171.02C45.8926 171.02 56.1641 155.178 61.5066 154.46C61.5066 150.021 57.2866 138.716 63.1608 129.816H73.9978Z" fill="#263238"/>
<path d="M62.9625 129.25C62.8109 129.328 62.6951 129.462 62.6393 129.623C62.5835 129.784 62.5919 129.96 62.6629 130.115C62.8191 130.347 71.7866 130.596 74.1202 130.579C76.4539 130.563 78.9985 130.449 78.8508 130.031C78.7031 129.613 78.796 128.9 78.4837 128.883C78.1714 128.866 63.8952 128.98 62.9625 129.25Z" fill="#4F4CFA"/>
<path d="M67.022 96.9207C67.1486 97.1866 67.3933 97.3427 67.5663 97.2541C67.7394 97.1655 67.7773 96.8912 67.655 96.6253C67.5326 96.3595 67.2836 96.2033 67.1106 96.292C66.9376 96.3806 66.8996 96.638 67.022 96.9207Z" fill="#263238"/>
<path d="M70.052 95.5028C70.1743 95.7687 70.4191 95.9248 70.5921 95.8362C70.7651 95.7476 70.8073 95.4691 70.6807 95.2032C70.5541 94.9374 70.3136 94.7812 70.1363 94.8741C69.9591 94.9669 69.9043 95.237 70.052 95.5028Z" fill="#263238"/>
<path d="M70.052 94.9247L70.6048 94.4394C70.6048 94.4394 70.5078 95.0893 70.052 94.9247Z" fill="#263238"/>
<path d="M69.4697 96.2371C69.9921 96.7362 70.5798 97.1621 71.2168 97.5031C71.129 97.6615 71.0082 97.7992 70.8626 97.907C70.717 98.0147 70.55 98.09 70.3728 98.1276L69.4697 96.2371Z" fill="#630F0F"/>
<path d="M69.6723 99.7017C69.8166 99.6617 69.9576 99.6109 70.0943 99.5498C70.1049 99.5448 70.1143 99.5378 70.1222 99.5292C70.13 99.5206 70.136 99.5105 70.1399 99.4995C70.1439 99.4885 70.1456 99.4769 70.145 99.4652C70.1444 99.4536 70.1415 99.4422 70.1365 99.4317C70.1316 99.4216 70.1247 99.4127 70.1163 99.4053C70.1079 99.398 70.0981 99.3924 70.0875 99.3889C70.0769 99.3853 70.0657 99.3839 70.0546 99.3848C70.0434 99.3856 70.0326 99.3886 70.0226 99.3937C69.6956 99.5594 69.3342 99.6458 68.9676 99.6458C68.601 99.6458 68.2396 99.5594 67.9126 99.3937C67.8933 99.3822 67.8705 99.3784 67.8485 99.3831C67.8266 99.3878 67.8073 99.4006 67.7944 99.419C67.7827 99.4389 67.7787 99.4625 67.7834 99.4851C67.7881 99.5077 67.8011 99.5278 67.8198 99.5414C68.3918 99.8378 69.0579 99.8955 69.6723 99.7017Z" fill="#263238"/>
<path d="M62.1523 101.28C62.6545 101.768 63.33 102.037 64.0302 102.027C64.9544 102.006 65.1527 101.111 64.6674 100.377C64.2454 99.7186 63.2326 98.9295 62.4097 99.305C62.2317 99.391 62.0779 99.5199 61.9622 99.6801C61.8466 99.8404 61.7726 100.027 61.747 100.223C61.7215 100.419 61.7452 100.618 61.8159 100.803C61.8867 100.987 62.0023 101.151 62.1523 101.28Z" fill="#7F3E3B"/>
<path d="M65.9459 96.562C65.9805 96.5515 66.0109 96.5303 66.0329 96.5015C66.0548 96.4728 66.0672 96.4378 66.0683 96.4017C66.0894 95.6041 66.9418 95.026 66.9502 95.0217C66.9691 95.009 66.9853 94.9927 66.9978 94.9737C67.0104 94.9547 67.019 94.9334 67.0233 94.9111C67.0277 94.8888 67.0275 94.8658 67.0229 94.8435C67.0184 94.8212 67.0094 94.8 66.9967 94.7812C66.9847 94.762 66.969 94.7455 66.9504 94.7326C66.9318 94.7198 66.9108 94.7109 66.8886 94.7066C66.8664 94.7022 66.8436 94.7025 66.8215 94.7073C66.7995 94.7122 66.7786 94.7215 66.7603 94.7348C66.7181 94.7601 65.7475 95.4184 65.7222 96.3932C65.7217 96.416 65.7256 96.4386 65.7338 96.4598C65.7419 96.481 65.7542 96.5004 65.7699 96.5168C65.7856 96.5333 65.8043 96.5465 65.8251 96.5557C65.8459 96.5649 65.8683 96.5699 65.891 96.5705L65.9459 96.562Z" fill="#263238"/>
<path d="M70.6934 93.3717C70.7216 93.3625 70.7472 93.3466 70.7678 93.3252C70.7884 93.3039 70.8034 93.2779 70.8116 93.2494C70.8173 93.2272 70.8185 93.2041 70.8152 93.1815C70.8119 93.1588 70.8041 93.137 70.7924 93.1174C70.7806 93.0978 70.765 93.0807 70.7466 93.0671C70.7282 93.0536 70.7072 93.0438 70.685 93.0384C70.4215 92.9627 70.1436 92.9524 69.8752 93.0083C69.6068 93.0642 69.3561 93.1846 69.1447 93.3591C69.1286 93.3751 69.1159 93.3942 69.1072 93.4152C69.0985 93.4362 69.094 93.4587 69.094 93.4815C69.094 93.5042 69.0985 93.5267 69.1072 93.5477C69.1159 93.5687 69.1286 93.5878 69.1447 93.6038C69.1605 93.6204 69.1795 93.6336 69.2005 93.6427C69.2215 93.6517 69.2442 93.6564 69.2671 93.6564C69.29 93.6564 69.3126 93.6517 69.3337 93.6427C69.3547 93.6336 69.3737 93.6204 69.3895 93.6038C69.5602 93.4705 69.76 93.3792 69.9726 93.3374C70.1853 93.2956 70.4047 93.3045 70.6133 93.3633C70.639 93.3724 70.6664 93.3753 70.6934 93.3717Z" fill="#263238"/>
<path d="M62.5826 112.412C61.2702 113.856 59.9451 115.404 58.734 116.953C58.1263 117.73 57.5524 118.527 57.046 119.325C56.5377 120.069 56.1051 120.862 55.7547 121.692C55.625 121.99 55.5397 122.306 55.5015 122.629V122.743C55.5022 122.756 55.5022 122.768 55.5015 122.781L55.5353 122.916L55.6028 123.186L55.704 123.498C56.0282 124.402 56.4001 125.288 56.8181 126.153C57.6621 127.959 58.6201 129.778 59.5358 131.592C59.6394 131.795 59.6647 132.029 59.607 132.249C59.5493 132.47 59.4126 132.661 59.2229 132.787C59.0332 132.914 58.8037 132.966 58.5782 132.933C58.3526 132.901 58.1468 132.788 57.9997 132.614C56.6346 131.011 55.3785 129.32 54.2397 127.55C53.6369 126.629 53.1023 125.666 52.6403 124.667L52.4631 124.245C52.4082 124.098 52.3576 123.937 52.3027 123.781L52.2268 123.549C52.2014 123.452 52.1719 123.317 52.1508 123.207C52.1187 122.99 52.1004 122.772 52.0959 122.553C52.1074 121.849 52.2313 121.151 52.4631 120.485C52.8537 119.395 53.3572 118.348 53.9654 117.362C54.5351 116.417 55.1512 115.535 55.7842 114.674C56.4172 113.813 57.0713 112.986 57.7592 112.172C58.447 111.357 59.1307 110.585 59.8945 109.796C60.0621 109.618 60.2632 109.474 60.4863 109.374C60.7094 109.273 60.95 109.218 61.1945 109.211C61.4391 109.203 61.6827 109.244 61.9114 109.331C62.1402 109.417 62.3496 109.548 62.5278 109.716C62.706 109.883 62.8494 110.085 62.9498 110.308C63.0503 110.531 63.1058 110.771 63.1132 111.016C63.1207 111.26 63.0799 111.504 62.9932 111.733C62.9065 111.961 62.7756 112.171 62.608 112.349L62.5826 112.412Z" fill="#803E3C"/>
<path d="M67.0432 96.3426L67.5918 95.8573C67.5918 95.8573 67.5201 96.5114 67.0432 96.3426Z" fill="#263238"/>
<path d="M59.1939 131.132L62.8484 132.609L59.5695 134.344C59.5695 134.344 57.6114 133.057 57.7464 131.546L59.1939 131.132Z" fill="#7F3E3B"/>
<path d="M63.6377 135.605L62.0552 136.336C61.9099 136.402 61.7471 136.421 61.5906 136.388C61.4341 136.355 61.2923 136.273 61.1858 136.154L59.5696 134.344L62.8485 132.609L63.971 134.559C64.0228 134.648 64.0552 134.748 64.0663 134.851C64.0774 134.953 64.067 135.057 64.0356 135.156C64.0042 135.254 63.9526 135.345 63.8841 135.423C63.8156 135.5 63.7316 135.562 63.6377 135.605Z" fill="#7F3E3B"/>
<path d="M77.2514 109.961C76.6564 108.273 76.1669 107.758 76.1669 107.758C75.6868 107.584 75.1795 107.497 74.6688 107.5C75.3187 109.382 77.0658 113.889 70.74 114.387C64.4142 114.885 62.1396 108.513 62.1396 108.513C61.0087 108.513 60.5867 108.914 60.5867 108.914C62.5237 113.556 64.4902 118.198 61.8527 119.688C62.3 121.912 62.3717 124.752 62.2367 127.642C64.7982 127.128 75.0359 125.722 79.2813 126.267C79.2391 123.41 79.1082 120.975 78.9183 118.907C80.5051 116.924 78.1967 111.83 77.2514 109.961Z" fill="#4F4CFA"/>
<path opacity="0.8" d="M77.2514 109.961C76.6564 108.273 76.1669 107.758 76.1669 107.758C75.6868 107.584 75.1795 107.497 74.6688 107.5C75.3187 109.382 77.0658 113.889 70.74 114.387C64.4142 114.885 62.1396 108.513 62.1396 108.513C61.0087 108.513 60.5867 108.914 60.5867 108.914C62.5237 113.556 64.4902 118.198 61.8527 119.688C62.3 121.912 62.3717 124.752 62.2367 127.642C64.7982 127.128 75.0359 125.722 79.2813 126.267C79.2391 123.41 79.1082 120.975 78.9183 118.907C80.5051 116.924 78.1967 111.83 77.2514 109.961Z" fill="#FAFAFA"/>
</svg>
