<?xml version="1.0" standalone="no"?>
<!DOCTYPE svg PUBLIC "-//W3C//DTD SVG 20010904//EN"
 "http://www.w3.org/TR/2001/REC-SVG-20010904/DTD/svg10.dtd">
<svg version="1.0" xmlns="http://www.w3.org/2000/svg"
width="100%" height="100%" viewBox="0 0 256 256"
 preserveAspectRatio="xMidYMid meet">

<g transform="translate(0.000000,256.000000) scale(0.100000,-0.100000)"
fill="#000000" stroke="none">
<path d="M1015 2538 c-2 -13 -9 -50 -15 -83 -5 -33 -18 -71 -28 -85 -39 -51
-260 -170 -367 -196 -176 -43 -268 -134 -296 -293 -14 -75 -6 -109 27 -121 48
-19 84 21 84 93 1 81 79 174 165 196 88 23 149 43 187 62 30 15 60 19 156 19
111 0 121 -2 153 -25 57 -42 94 -65 102 -65 4 0 19 11 33 25 18 19 23 31 19
48 -13 42 -111 115 -177 131 l-27 6 33 49 c20 29 38 72 45 110 l12 61 159 0
159 0 11 -57 c13 -63 50 -137 77 -151 13 -8 10 -11 -18 -17 -46 -10 -96 -38
-140 -77 -51 -45 -57 -71 -25 -103 31 -31 35 -31 77 0 91 67 86 65 212 65 95
0 125 -4 155 -19 35 -17 63 -27 193 -65 67 -19 131 -81 148 -143 6 -21 32
-231 57 -468 l46 -429 39 -65 c95 -157 153 -404 166 -703 l6 -148 -61 0 c-54
0 -63 3 -78 25 -31 47 -142 301 -183 420 -23 66 -47 123 -54 127 -20 13 -64 9
-77 -7 -8 -10 -11 -31 -7 -59 9 -62 102 -297 183 -460 l67 -136 158 0 159 0 6
26 c4 14 4 87 0 162 -20 389 -80 641 -200 842 -11 17 -30 158 -61 451 -25 235
-52 446 -60 470 -38 110 -130 185 -273 221 -115 29 -334 145 -374 198 -10 14
-23 52 -28 85 -6 33 -13 70 -15 83 l-5 22 -260 0 -260 0 -5 -22z"/>
<path d="M1151 1977 c-67 -24 -76 -48 -79 -231 l-3 -162 -42 -15 c-33 -11 -47
-23 -63 -56 -17 -34 -24 -40 -33 -29 -6 7 -29 18 -52 25 -52 16 -89 -4 -89
-48 0 -33 10 -43 68 -66 42 -17 44 -17 71 3 l28 21 22 -30 22 -29 -57 0 c-101
0 -129 15 -245 127 -106 103 -128 115 -163 90 -34 -25 -23 -64 34 -122 l53
-53 -7 -69 c-11 -100 -42 -247 -71 -332 -14 -41 -25 -89 -25 -106 0 -123 -78
-382 -184 -616 -90 -196 -84 -189 -156 -189 l-60 0 0 84 c0 186 38 437 89 589
27 79 42 111 105 222 12 22 26 118 50 345 30 278 33 318 20 338 -18 27 -64 30
-86 5 -12 -13 -24 -99 -48 -323 -25 -235 -37 -311 -50 -330 -80 -115 -152
-357 -179 -605 -15 -132 -25 -359 -17 -389 l6 -26 158 0 158 0 58 117 c32 64
74 153 93 197 78 179 153 441 153 533 0 45 30 157 40 146 26 -30 31 -104 25
-327 -6 -200 -11 -242 -31 -314 -27 -95 -51 -284 -41 -324 l7 -28 124 0 c104
0 125 3 130 16 19 50 -8 74 -86 74 l-61 0 7 69 c8 93 27 171 40 171 17 0 116
-67 153 -103 18 -17 45 -48 59 -69 32 -45 57 -55 89 -34 49 32 23 98 -76 192
-44 42 -130 99 -183 122 -28 12 -28 14 -22 70 3 31 6 138 7 237 0 149 -3 194
-19 260 -22 88 -42 207 -42 254 l0 30 48 -22 c40 -18 67 -21 185 -22 l138 -2
46 -45 c38 -39 44 -48 34 -65 -17 -33 -61 -56 -120 -62 -46 -5 -58 -10 -70
-32 -13 -24 -13 -29 2 -53 15 -23 24 -26 73 -26 30 0 71 7 91 15 45 19 43 20
43 -10 0 -67 -54 -115 -139 -124 -46 -5 -58 -10 -70 -32 -13 -24 -13 -29 2
-53 15 -23 24 -26 73 -26 30 0 71 7 91 15 19 8 37 15 39 15 2 0 4 -19 4 -42 0
-79 -50 -127 -138 -137 -47 -5 -59 -10 -71 -32 -13 -24 -13 -29 2 -53 16 -23
24 -26 75 -26 33 0 74 8 97 19 l40 18 -3 -49 c-5 -62 16 -98 58 -98 39 0 60
32 60 92 0 27 2 48 4 48 2 0 20 -7 39 -15 20 -8 61 -15 91 -15 49 0 58 3 73
26 15 24 15 29 2 53 -12 22 -24 27 -71 32 -88 10 -138 58 -138 137 0 23 2 42
4 42 2 0 20 -7 39 -15 20 -8 61 -15 91 -15 49 0 58 3 73 26 15 24 15 29 2 53
-12 22 -24 27 -70 32 -85 9 -139 57 -139 124 0 30 -2 29 43 10 20 -8 61 -15
91 -15 49 0 58 3 73 26 15 24 15 29 2 53 -12 22 -24 27 -70 32 -59 6 -103 29
-120 62 -10 17 -4 26 34 65 l46 45 138 2 c118 1 145 4 186 22 l47 22 0 -30 c0
-47 -20 -166 -42 -254 -16 -66 -19 -111 -19 -260 1 -99 4 -205 7 -236 l6 -57
-72 -38 c-40 -21 -98 -61 -128 -88 -109 -100 -139 -168 -87 -202 31 -20 59
-11 84 29 37 60 181 177 217 177 12 0 44 -150 44 -207 l0 -33 -427 -2 -428 -3
-9 -26 c-21 -62 -44 -59 488 -59 l486 0 6 27 c10 40 -14 232 -40 325 -20 71
-25 115 -31 310 -5 171 -3 240 7 282 7 31 15 56 19 56 11 0 30 -78 39 -163 10
-87 23 -107 66 -107 13 0 30 7 39 17 24 24 12 152 -26 272 -30 94 -69 296 -69
354 0 24 12 43 51 83 56 57 67 96 33 121 -35 25 -57 13 -163 -90 -116 -112
-144 -127 -245 -127 l-57 0 22 29 22 30 28 -21 c27 -20 29 -20 71 -3 58 23 68
33 68 66 0 44 -37 64 -89 48 -23 -7 -46 -18 -52 -25 -9 -11 -16 -5 -33 29 -17
33 -30 45 -63 57 l-43 14 0 149 c0 230 -15 250 -195 254 -69 2 -123 -2 -144
-10z m219 -291 l0 -185 26 -20 c16 -12 41 -21 62 -21 l35 0 -106 -107 -107
-106 -107 106 -106 107 35 0 c21 0 46 9 62 21 l26 20 0 185 0 184 90 0 90 0 0
-184z"/>
</g>
</svg>
