<?xml version="1.0" standalone="no"?>
<!DOCTYPE svg PUBLIC "-//W3C//DTD SVG 20010904//EN"
 "http://www.w3.org/TR/2001/REC-SVG-20010904/DTD/svg10.dtd">
<svg version="1.0" xmlns="http://www.w3.org/2000/svg"
width="100%" height="100%" viewBox="0 0 256 256"
 preserveAspectRatio="xMidYMid meet">

<g transform="translate(0.000000,256.000000) scale(0.100000,-0.100000)"
fill="#000000" stroke="none">
<path d="M627 2380 c-238 -29 -450 -175 -560 -389 -64 -123 -69 -149 -65 -363
3 -186 4 -195 32 -257 35 -80 84 -159 135 -214 32 -35 39 -51 43 -96 8 -77 53
-106 98 -61 17 17 20 33 20 120 0 94 2 103 25 125 30 30 64 32 99 4 l26 -20 0
-324 c0 -300 -1 -324 -19 -346 -26 -32 -86 -32 -112 0 -17 20 -19 41 -19 170
0 165 -8 191 -60 191 -50 0 -60 -28 -60 -172 0 -70 5 -150 11 -178 22 -101
107 -158 217 -147 l58 6 19 -35 c11 -20 39 -47 64 -62 96 -56 216 -21 263 77
l23 49 125 -123 c106 -103 133 -125 179 -140 127 -42 281 -6 281 66 0 29 -36
52 -72 45 -160 -31 -169 -27 -355 157 l-153 151 0 53 0 53 410 0 410 0 0 -53
0 -52 -110 -110 c-86 -86 -110 -116 -110 -137 0 -27 31 -58 58 -58 8 0 47 32
88 72 41 39 75 69 77 67 2 -2 15 -24 29 -49 52 -90 165 -121 258 -69 28 15 53
39 65 61 l20 37 57 -6 c110 -11 195 46 217 147 6 29 11 156 11 296 l0 246 50
55 c54 61 110 161 141 250 28 81 28 383 0 464 -42 123 -117 239 -154 239 -59
0 -78 -51 -41 -106 88 -127 118 -235 111 -394 -5 -128 -28 -208 -87 -299 l-32
-51 -39 44 c-48 55 -91 70 -175 63 -41 -3 -64 -1 -64 6 0 23 -55 80 -94 98
-112 51 -237 -11 -265 -131 -6 -25 -11 -96 -11 -157 l0 -113 -410 0 -410 0 0
113 c0 61 -5 132 -11 157 -27 120 -153 182 -264 131 -43 -19 -95 -72 -95 -96
0 -11 -13 -13 -63 -8 -84 8 -127 -8 -176 -63 l-39 -45 -36 58 c-69 111 -100
254 -84 399 25 235 200 443 433 517 100 31 281 31 375 -2 93 -33 171 -83 266
-173 50 -46 92 -78 104 -78 13 0 54 31 103 78 93 88 172 140 267 173 53 18 87
23 185 23 164 1 227 -19 392 -124 16 -11 29 -12 50 -4 24 8 28 15 28 49 0 38
-3 42 -65 83 -119 78 -240 113 -395 113 -193 1 -359 -62 -495 -188 l-70 -65
-70 65 c-153 141 -373 212 -583 187z m113 -1030 c6 -12 10 -188 10 -451 0
-431 0 -433 -22 -456 -28 -30 -74 -30 -105 -1 l-23 21 0 433 c0 238 3 440 6
449 18 45 111 48 134 5z m1210 0 c6 -12 10 -188 10 -451 0 -431 0 -433 -22
-456 -28 -30 -74 -30 -105 -1 l-23 21 0 433 c0 238 3 440 6 449 18 45 111 48
134 5z m255 -105 l25 -24 0 -319 c0 -298 -1 -321 -19 -343 -26 -32 -86 -32
-112 0 -18 22 -19 46 -19 346 l0 324 26 20 c35 28 69 26 99 -4z m-515 -340 l0
-65 -410 0 -410 0 0 65 0 65 410 0 410 0 0 -65z"/>
</g>
</svg>
