<?xml version="1.0" standalone="no"?>
<!DOCTYPE svg PUBLIC "-//W3C//DTD SVG 20010904//EN"
 "http://www.w3.org/TR/2001/REC-SVG-20010904/DTD/svg10.dtd">
<svg version="1.0" xmlns="http://www.w3.org/2000/svg"
width="100%" height="100%" viewBox="0 0 256 256"
 preserveAspectRatio="xMidYMid meet">

<g transform="translate(0.000000,256.000000) scale(0.100000,-0.100000)"
fill="#000000" stroke="none">
<path d="M445 2321 c-81 -23 -155 -62 -226 -118 -46 -35 -59 -52 -59 -72 0
-61 44 -66 106 -13 90 80 227 132 349 132 66 0 159 -23 231 -57 77 -36 199
-157 237 -235 32 -66 57 -165 57 -225 l0 -43 -49 35 c-53 38 -81 43 -105 19
-30 -29 -18 -52 52 -99 173 -115 379 -491 342 -623 -5 -20 -10 -59 -10 -85 0
-40 4 -49 23 -56 36 -14 61 9 70 65 11 65 85 215 141 286 70 88 159 155 335
251 158 86 183 107 173 137 -2 8 -53 65 -113 126 -104 106 -120 131 -101 162
7 10 17 9 50 -2 49 -17 139 -74 166 -105 25 -27 72 -28 86 -1 15 29 4 56 -36
86 -19 15 -34 30 -34 34 0 5 16 14 36 20 48 16 65 53 37 81 -26 26 -77 18
-130 -20 l-37 -27 -59 21 c-56 19 -58 21 -53 49 11 54 16 56 181 56 202 0 195
5 292 -200 99 -211 99 -219 -1 -414 -73 -142 -197 -341 -300 -480 l-54 -74
-66 -4 c-98 -6 -126 -43 -126 -170 l0 -56 -130 -140 c-146 -158 -231 -232
-265 -232 -43 0 -283 137 -457 261 -53 38 -104 69 -112 69 -26 0 -49 -45 -36
-69 21 -40 349 -253 495 -323 69 -32 138 -37 188 -12 18 9 95 79 173 156 l141
140 12 -45 c6 -28 21 -54 37 -66 34 -27 94 -28 125 -2 l24 20 121 -120 121
-119 48 0 c48 0 50 2 137 88 88 88 88 88 88 139 0 41 -5 58 -26 82 -34 40 -79
43 -96 6 -10 -22 -8 -30 11 -56 l23 -31 -68 -69 -69 -69 -130 130 c-145 145
-160 152 -210 100 -16 -16 -33 -30 -37 -30 -5 0 -7 73 -6 163 l3 162 158 3
c174 3 182 -1 127 -53 -16 -16 -30 -37 -30 -47 0 -23 83 -114 122 -134 21 -11
33 -12 48 -4 32 17 25 59 -17 102 -36 37 -36 38 -17 59 30 33 26 102 -9 136
-24 24 -37 29 -101 33 l-73 5 74 105 c95 134 190 293 264 444 58 117 59 120
59 205 l0 87 -75 159 c-118 249 -126 255 -385 255 l-180 0 -36 -33 c-29 -27
-40 -47 -55 -107 -11 -41 -22 -104 -26 -140 -7 -84 10 -120 106 -215 39 -38
71 -72 71 -75 0 -4 -44 -31 -97 -60 -201 -110 -306 -195 -384 -310 -19 -27
-36 -50 -39 -50 -3 0 -18 33 -34 73 -35 87 -88 180 -151 266 l-47 64 1 106 c3
185 -52 323 -179 452 -120 122 -265 180 -445 178 -63 0 -122 -7 -160 -18z"/>
<path d="M51 1993 c-38 -76 -51 -142 -51 -268 0 -170 34 -273 131 -396 24 -29
76 -97 115 -149 128 -171 353 -406 469 -488 39 -28 72 -23 81 13 5 20 -22 51
-193 222 -110 109 -228 236 -262 283 -34 47 -81 109 -104 138 -109 140 -148
234 -148 367 0 90 11 150 41 221 27 61 16 94 -30 94 -24 0 -33 -7 -49 -37z"/>
<path d="M1685 1767 c-16 -12 -17 -23 -11 -88 11 -107 46 -147 91 -103 17 18
15 73 -6 155 -12 48 -39 61 -74 36z"/>
<path d="M1506 1684 c-25 -24 -20 -41 31 -110 37 -51 52 -64 74 -64 33 0 53
23 45 52 -9 37 -94 138 -115 138 -11 0 -27 -7 -35 -16z"/>
<path d="M1392 1549 c-19 -7 -23 -15 -20 -41 3 -30 10 -36 68 -65 72 -35 102
-40 120 -19 23 29 7 60 -45 88 -71 39 -97 46 -123 37z"/>
</g>
</svg>
