<?xml version="1.0" standalone="no"?>
<!DOCTYPE svg PUBLIC "-//W3C//DTD SVG 20010904//EN" "http://www.w3.org/TR/2001/REC-SVG-20010904/DTD/svg10.dtd">
<svg version="1.0" xmlns="http://www.w3.org/2000/svg"
    width="100%" height="100%" viewBox="0 0 256 256"
    preserveAspectRatio="xMidYMid meet">

    <g transform="translate(0.000000,256.000000) scale(0.100000,-0.100000)"
        fill="#000000" stroke="none">
        <path
            d="M503 2369 c-212 -35 -403 -193 -479 -396 -24 -64 -25 -75 -22 -243
l3 -176 38 -77 c21 -42 56 -100 80 -129 23 -29 74 -96 113 -148 39 -52 108
-136 152 -187 45 -50 82 -94 82 -97 0 -3 -7 -6 -15 -6 -8 0 -29 -13 -47 -29
-29 -26 -33 -35 -33 -80 0 -34 5 -56 17 -67 16 -16 16 -19 -7 -46 -29 -34 -30
-46 -9 -76 27 -39 64 -29 123 32 28 30 51 62 51 70 0 8 -14 31 -31 51 l-31 35
151 0 151 0 0 -152 0 -152 -33 32 c-54 52 -66 47 -212 -98 l-131 -130 -64 65
-64 65 32 33 c38 39 42 79 10 101 -32 23 -43 20 -89 -21 -67 -61 -84 -114 -55
-171 8 -15 50 -62 94 -104 129 -123 157 -119 321 46 l104 104 33 -20 c42 -25
91 -18 131 16 22 19 29 35 33 80 l5 55 142 -93 c172 -113 351 -206 396 -206
77 0 107 18 235 144 344 336 637 722 818 1079 l66 129 -4 121 -4 122 -50 100
c-46 91 -53 100 -81 103 -34 3 -63 -19 -63 -48 0 -11 22 -68 50 -128 72 -157
71 -176 -23 -357 -176 -340 -419 -664 -752 -1002 -171 -174 -163 -172 -317
-86 -123 67 -244 145 -345 219 l-73 54 0 73 c0 116 -38 147 -175 147 -42 0
-84 4 -94 10 -54 28 -362 400 -459 553 -100 158 -97 383 6 543 153 235 463
306 706 159 63 -38 77 -41 107 -25 13 7 19 21 19 45 0 29 -6 39 -45 65 -129
89 -302 126 -462 99z" />
        <path
            d="M1915 2216 c-69 -31 -107 -120 -122 -287 -7 -83 6 -109 104 -210 l73
-76 -52 -28 c-219 -116 -327 -200 -415 -319 -41 -56 -44 -58 -50 -35 -12 46
-114 235 -165 303 l-51 69 2 97 c3 123 -17 209 -71 312 -45 88 -72 109 -113
90 -40 -18 -42 -55 -6 -110 39 -61 68 -145 77 -222 7 -61 -1 -75 -25 -46 -23
28 -79 48 -101 36 -54 -29 -46 -78 20 -120 148 -95 308 -347 350 -549 10 -52
23 -98 28 -103 5 -5 25 -8 43 -6 32 3 37 9 89 107 93 176 170 245 425 385 77
43 146 83 154 91 33 33 17 63 -98 179 -72 73 -111 120 -111 134 0 12 6 22 14
22 25 0 147 -68 187 -105 44 -40 70 -44 99 -15 30 30 25 58 -22 100 l-41 39
34 8 c20 6 40 20 48 35 13 23 13 29 -3 53 -16 25 -22 27 -62 22 -24 -2 -62
-16 -83 -30 -39 -26 -39 -26 -90 -9 -55 18 -56 19 -41 56 l10 26 155 0 c119 0
163 -4 185 -15 37 -19 77 -6 86 29 8 34 -9 60 -53 82 -32 16 -65 19 -208 22
-127 1 -178 -1 -200 -12z" />
        <path
            d="M1337 1913 c-8 -10 -25 -53 -38 -96 -22 -75 -22 -78 -4 -97 13 -14
29 -20 49 -18 36 4 60 43 78 131 11 50 10 58 -7 77 -22 25 -57 26 -78 3z" />
        <path
            d="M1515 1820 c-31 -12 -125 -116 -125 -139 0 -22 32 -61 50 -61 46 0
150 103 150 149 0 41 -36 65 -75 51z" />
        <path
            d="M1542 1639 c-69 -22 -92 -51 -72 -89 21 -39 44 -42 130 -14 94 29
115 54 86 99 -20 31 -54 32 -144 4z" />
    </g>
</svg>