<?xml version="1.0" standalone="no"?>
<!DOCTYPE svg PUBLIC "-//W3C//DTD SVG 20010904//EN"
 "http://www.w3.org/TR/2001/REC-SVG-20010904/DTD/svg10.dtd">
<svg version="1.0" xmlns="http://www.w3.org/2000/svg"
width="100%" height="100%" viewBox="0 0 256 256"
 preserveAspectRatio="xMidYMid meet">

<g transform="translate(0.000000,256.000000) scale(0.100000,-0.100000)"
fill="#000000" stroke="none">
<path d="M307 2540 c-7 -26 37 -170 55 -181 19 -13 62 -11 76 3 17 17 15 57
-8 132 l-21 66 -48 0 c-40 0 -50 -3 -54 -20z"/>
<path d="M896 2533 c-37 -70 -139 -142 -317 -222 -139 -62 -217 -122 -280
-214 -67 -97 -94 -187 -93 -312 0 -87 5 -113 34 -200 30 -87 35 -113 35 -200
0 -85 -6 -120 -37 -235 -59 -213 -70 -292 -75 -531 -5 -229 -2 -253 40 -268
21 -8 66 4 68 18 0 3 2 100 3 216 3 234 19 347 79 560 58 203 57 291 -4 475
-28 86 -31 104 -27 190 3 81 9 104 36 161 53 111 108 157 305 253 175 86 256
142 304 210 l26 36 262 0 262 0 79 -78 c112 -110 176 -135 205 -80 17 31 3 64
-38 90 -53 32 -109 84 -134 124 l-21 34 -349 0 -348 0 -15 -27z"/>
<path d="M180 2473 c-21 -8 -40 -34 -40 -56 0 -22 96 -126 129 -138 35 -14 71
13 71 51 0 22 -12 44 -42 76 -35 38 -88 76 -100 73 -2 0 -10 -3 -18 -6z"/>
<path d="M1246 2338 c-13 -18 -16 -56 -16 -204 0 -163 2 -183 18 -197 26 -24
68 -21 86 5 13 18 16 55 16 198 0 196 -6 220 -60 220 -18 0 -34 -8 -44 -22z"/>
<path d="M1864 2295 c-27 -42 -7 -69 83 -112 80 -39 161 -110 196 -171 l18
-32 -25 0 c-21 0 -26 5 -26 26 0 16 -13 39 -34 60 -45 45 -96 47 -152 5 -45
-33 -213 -204 -238 -241 -9 -13 -16 -42 -16 -64 0 -35 8 -46 87 -127 l86 -88
-12 -218 c-6 -120 -11 -314 -11 -430 0 -200 1 -214 20 -233 25 -25 52 -26 72
-2 13 14 17 68 22 302 3 157 9 328 13 380 l6 95 49 0 c43 0 53 4 79 33 16 18
29 43 29 57 0 19 5 25 21 25 16 0 19 -4 14 -20 -14 -43 -21 -164 -14 -230 4
-38 19 -108 34 -155 96 -315 108 -635 40 -1032 l-6 -33 -104 0 c-90 0 -104 2
-109 18 -7 21 -32 246 -41 365 -4 56 -12 93 -22 102 -19 20 -58 19 -79 -2 -15
-15 -16 -32 -11 -133 4 -63 14 -166 22 -229 8 -63 15 -116 15 -118 0 -2 -264
-3 -586 -3 l-587 0 7 48 c33 232 40 363 40 747 0 447 -14 697 -41 727 -20 22
-56 23 -78 1 -15 -14 -16 -33 -8 -172 4 -86 8 -349 8 -586 -1 -352 -4 -457
-19 -580 -10 -82 -22 -158 -27 -168 -8 -15 -26 -17 -130 -17 -137 0 -130 -5
-143 101 -9 68 -24 92 -59 92 -58 -1 -66 -30 -47 -166 6 -40 13 -82 16 -94 l4
-23 1040 0 c980 0 1039 1 1044 18 3 9 17 103 31 207 54 388 35 630 -81 1035
-17 60 -14 195 5 261 l11 37 88 4 c144 7 162 30 162 208 0 179 -24 209 -167
211 l-68 0 -30 62 c-44 91 -140 184 -244 235 -97 49 -124 52 -147 17z m161
-421 c14 -11 62 -14 202 -14 l183 0 0 -90 0 -90 -183 0 c-217 0 -227 -3 -227
-78 l0 -47 -107 107 -108 108 105 105 105 106 6 -47 c3 -29 12 -52 24 -60z"/>
<path d="M50 2291 c-27 -51 -5 -78 85 -105 98 -30 135 -20 135 34 0 35 -19 50
-89 72 -75 24 -118 23 -131 -1z"/>
<path d="M1008 1986 c-32 -16 -33 -44 -13 -223 29 -251 13 -325 -97 -456 -59
-70 -72 -109 -46 -135 23 -23 67 -14 100 21 97 103 149 200 169 311 9 55 7 97
-11 258 -12 105 -25 199 -30 209 -13 22 -43 29 -72 15z"/>
<path d="M1523 1989 c-11 -4 -23 -12 -26 -16 -3 -5 -16 -94 -28 -199 -27 -227
-21 -293 34 -406 48 -100 140 -208 178 -208 33 0 59 23 59 54 0 12 -24 50 -55
86 -116 136 -129 202 -100 485 15 136 16 177 6 188 -16 20 -42 26 -68 16z"/>
<path d="M1250 1160 c-19 -19 -20 -33 -20 -495 0 -462 1 -476 20 -495 24 -24
49 -25 76 -6 18 14 19 31 19 501 0 470 -1 487 -19 501 -27 19 -52 18 -76 -6z"/>
<path d="M857 312 c-10 -10 -17 -27 -17 -37 0 -27 67 -86 148 -128 79 -42 102
-42 128 -1 15 22 15 26 1 48 -9 13 -36 33 -61 45 -24 12 -65 38 -90 57 -50 38
-85 43 -109 16z"/>
<path d="M1620 301 c-19 -15 -63 -42 -97 -60 -67 -33 -84 -61 -64 -100 19 -34
53 -35 112 -6 73 37 156 100 164 125 4 13 0 31 -9 45 -22 34 -63 32 -106 -4z"/>
</g>
</svg>
