<?xml version="1.0" standalone="no"?>
<!DOCTYPE svg PUBLIC "-//W3C//DTD SVG 20010904//EN"
 "http://www.w3.org/TR/2001/REC-SVG-20010904/DTD/svg10.dtd">
<svg version="1.0" xmlns="http://www.w3.org/2000/svg"
width="100%" height="100%" viewBox="0 0 256 256"
 preserveAspectRatio="xMidYMid meet">

<g transform="translate(0.000000,256.000000) scale(0.100000,-0.100000)"
fill="#000000" stroke="none">
<path d="M378 2543 c-3 -10 8 -112 23 -228 32 -238 35 -320 14 -420 -15 -70
-55 -185 -65 -184 -3 0 -26 34 -52 75 -41 64 -51 74 -76 74 -31 0 -62 -26 -62
-53 0 -25 90 -157 109 -159 9 0 24 -1 34 0 9 1 17 -1 17 -4 0 -3 -33 -81 -74
-173 -131 -295 -160 -419 -160 -681 0 -187 21 -338 51 -372 18 -20 45 -23 74
-8 24 13 24 47 3 155 -21 109 -21 333 0 450 28 147 52 217 171 485 62 140 120
280 129 310 37 127 37 262 1 514 -8 60 -15 118 -15 128 0 17 29 18 714 18 393
0 717 -3 719 -7 3 -5 -2 -64 -11 -132 l-16 -124 23 -18 c29 -24 43 -24 70 -1
18 14 24 41 43 179 11 89 18 169 15 177 -6 14 -89 16 -841 16 -786 0 -834 -1
-838 -17z"/>
<path d="M1180 2410 c-19 -19 -20 -33 -20 -408 0 -335 2 -391 16 -410 17 -25
51 -29 80 -8 18 14 19 32 22 393 2 208 0 388 -3 400 -12 52 -60 68 -95 33z"/>
<path d="M1905 2091 c-16 -18 -17 -32 -12 -108 9 -124 36 -209 134 -427 127
-284 157 -363 187 -498 6 -25 3 -28 -18 -28 -21 0 -27 7 -36 39 -14 53 -51 81
-105 81 -54 0 -90 -26 -221 -162 -155 -160 -154 -176 34 -360 134 -132 163
-149 218 -128 43 17 63 39 74 82 10 33 14 38 41 38 31 0 31 0 24 -42 -14 -94
-56 -229 -108 -353 l-55 -130 -391 -3 -391 -2 0 157 0 158 33 -39 c23 -27 41
-39 60 -39 67 0 74 53 18 127 -96 126 -111 186 -111 450 0 240 7 266 82 343
59 61 52 123 -14 123 -30 0 -73 -35 -110 -89 l-17 -24 -51 57 c-57 61 -92 72
-123 38 -26 -28 -21 -51 22 -97 81 -88 86 -106 89 -325 3 -151 0 -211 -12
-263 -53 -228 -263 -406 -479 -407 -77 0 -113 -54 -66 -101 19 -19 28 -20 92
-14 170 17 319 95 435 229 l33 37 -3 -158 -3 -158 -390 0 -390 0 -47 110 c-53
123 -78 152 -121 136 -46 -18 -43 -46 22 -197 l59 -139 929 -3 929 -2 63 146
c68 160 105 278 125 394 l12 75 81 5 c68 4 86 9 107 29 26 24 26 26 26 176 0
150 0 152 -26 176 -21 20 -38 24 -111 29 l-85 5 -28 110 c-30 120 -57 189
-180 460 -89 197 -120 296 -120 389 0 34 -6 72 -13 86 -17 33 -66 39 -92 11z
m166 -1157 c12 -12 52 -15 200 -17 l184 -2 3 -92 3 -93 -190 0 c-185 0 -190
-1 -205 -22 -9 -12 -16 -38 -16 -58 l0 -35 -105 105 -105 105 102 103 103 103
6 -41 c3 -22 12 -47 20 -56z"/>
<path d="M2167 1798 c-60 -85 -64 -102 -32 -133 42 -43 69 -27 136 83 31 51
32 56 18 81 -10 18 -24 27 -46 29 -28 3 -35 -3 -76 -60z"/>
<path d="M69 1706 c-29 -14 -37 -60 -15 -85 8 -9 47 -32 85 -50 68 -33 70 -34
96 -17 21 14 26 24 23 49 -2 27 -12 37 -57 64 -75 45 -104 53 -132 39z"/>
<path d="M2299 1689 c-35 -17 -72 -38 -81 -46 -27 -24 -23 -69 8 -89 24 -16
28 -16 86 12 85 40 108 60 108 94 0 56 -42 66 -121 29z"/>
<path d="M787 1662 c-10 -10 -17 -28 -17 -39 0 -49 191 -173 244 -159 26 6 41
38 34 73 -2 10 -28 31 -60 48 -31 17 -74 45 -96 63 -46 36 -81 41 -105 14z"/>
<path d="M1541 1645 c-24 -19 -68 -46 -97 -60 -58 -27 -75 -56 -55 -94 20 -37
54 -36 130 4 95 50 144 93 144 128 0 65 -55 75 -122 22z"/>
<path d="M12 1521 c-9 -5 -12 -24 -10 -52 l3 -44 96 -3 c105 -3 122 4 122 53
0 46 -18 55 -112 55 -47 0 -92 -4 -99 -9z"/>
<path d="M2243 1504 c-15 -24 -15 -29 -2 -53 14 -25 19 -26 108 -29 103 -3
121 4 121 48 0 47 -26 60 -123 60 -82 0 -87 -1 -104 -26z"/>
<path d="M1477 318 c-30 -23 -19 -78 20 -101 76 -44 261 -87 316 -73 35 8 52
52 32 82 -17 26 -31 30 -116 38 -31 2 -85 16 -120 31 -82 35 -110 39 -132 23z"/>
</g>
</svg>
