<?xml version="1.0" standalone="no"?>
<!DOCTYPE svg PUBLIC "-//W3C//DTD SVG 20010904//EN"
 "http://www.w3.org/TR/2001/REC-SVG-20010904/DTD/svg10.dtd">
<svg version="1.0" xmlns="http://www.w3.org/2000/svg"
width="100%" height="100%" viewBox="0 0 256 256"
 preserveAspectRatio="xMidYMid meet">
<g transform="translate(0.000000,256.000000) scale(0.100000,-0.100000)"
fill="#000000" stroke="none">
<path d="M268 2427 l-48 -47 0 -154 0 -155 -38 -16 c-21 -10 -48 -32 -61 -51
-22 -31 -22 -37 -11 -86 11 -46 24 -65 104 -146 193 -198 225 -212 319 -132
66 56 220 216 228 238 5 13 9 43 9 67 0 53 -35 101 -83 113 l-32 8 -5 147 -5
147 -58 57 -57 58 -107 0 -107 0 -48 -48z m252 -280 c5 -180 6 -190 27 -207
14 -11 34 -16 53 -14 l31 4 -31 -27 c-18 -14 -62 -57 -98 -95 l-66 -68 -90 88
c-50 48 -92 90 -94 93 -2 4 10 5 25 3 64 -7 73 21 73 229 0 95 2 176 4 178 3
2 40 4 83 4 l78 0 5 -188z"/>
<path d="M1968 2427 l-48 -47 0 -156 0 -156 -38 -14 c-21 -9 -48 -30 -61 -49
-22 -32 -22 -38 -11 -87 11 -46 24 -65 104 -146 193 -198 225 -212 319 -132
66 56 220 216 228 238 5 13 9 43 9 67 0 53 -35 101 -83 113 l-32 8 -5 147 -5
147 -58 57 -57 58 -107 0 -107 0 -48 -48z m176 -115 c0 -12 4 -21 10 -19 6 2
11 13 10 25 0 16 5 20 25 19 l26 -2 5 -189 c5 -179 6 -189 27 -206 14 -11 34
-16 53 -14 l31 4 -31 -27 c-18 -14 -62 -57 -98 -95 l-66 -68 -90 88 c-50 48
-92 90 -94 93 -2 4 10 5 25 3 64 -7 73 21 73 229 0 95 2 176 4 178 3 3 24 4
48 4 38 0 43 -3 42 -23z"/>
<path d="M938 2179 c-15 -8 -18 -24 -18 -88 0 -157 -34 -251 -127 -352 -49
-53 -74 -68 -222 -140 -147 -72 -173 -89 -232 -148 -74 -74 -130 -175 -149
-268 -20 -96 -8 -233 30 -343 29 -84 33 -108 34 -208 1 -100 3 -115 20 -128
27 -20 62 -18 85 5 44 44 36 233 -14 367 -35 94 -44 218 -20 300 43 151 156
252 374 335 21 9 22 8 11 -6 -12 -15 -11 -15 14 -3 16 7 23 14 16 16 -6 2 16
22 49 44 33 21 84 65 112 96 33 37 53 52 56 44 3 -9 15 2 29 28 28 49 29 54 9
46 -13 -5 -13 -2 0 25 23 44 55 175 55 226 l0 43 205 0 205 0 0 -64 c0 -98 48
-143 108 -100 20 14 22 23 22 127 0 171 30 157 -333 157 -186 0 -309 -5 -319
-11z"/>
<path d="M1548 1848 c-9 -7 -21 -30 -28 -52 -11 -33 -10 -41 6 -63 11 -14 23
-24 27 -24 5 1 23 -16 40 -38 51 -64 129 -116 292 -195 168 -82 220 -126 269
-231 57 -119 58 -219 5 -370 -39 -112 -50 -264 -26 -360 8 -33 31 -121 50
-195 19 -74 37 -154 40 -177 l5 -43 -146 0 -145 0 7 258 c3 141 11 313 16 380
10 130 6 153 -30 172 -26 14 -68 3 -80 -21 -15 -27 -29 -227 -36 -526 l-7
-263 -228 0 -228 0 -3 146 c-3 131 -5 147 -22 160 -27 19 -70 18 -89 -4 -14
-15 -17 -42 -17 -160 l0 -142 -238 0 -239 0 -7 293 c-9 364 -18 483 -37 502
-25 25 -63 28 -89 7 l-24 -19 12 -234 c7 -129 12 -305 12 -391 l0 -158 -166 0
-166 0 7 48 c4 26 15 84 26 130 10 45 19 95 19 111 0 34 -28 61 -63 61 -47 0
-57 -19 -90 -170 -22 -94 -41 -246 -34 -264 6 -14 117 -16 1112 -16 1045 0
1105 1 1106 18 6 76 -25 255 -73 418 -27 91 -32 126 -33 214 0 95 3 114 34
200 32 86 35 105 35 205 1 82 -4 124 -18 165 -32 95 -79 171 -144 237 -51 51
-85 74 -170 114 -59 28 -131 63 -161 77 -58 29 -151 114 -176 162 -24 47 -73
64 -107 38z"/>
<path d="M1260 1643 c-37 -13 -40 -33 -40 -240 l0 -203 -40 26 c-37 25 -41 25
-63 11 -23 -15 -25 -14 -44 10 -23 32 -78 36 -99 8 -18 -24 -17 -47 6 -246 17
-149 18 -172 5 -233 -17 -80 -44 -129 -114 -209 -36 -41 -51 -67 -51 -87 0
-40 25 -62 68 -58 31 3 45 13 95 73 128 152 155 254 130 495 -10 96 -11 146
-5 148 6 2 8 18 5 39 -7 44 10 57 49 37 23 -12 28 -21 28 -49 0 -34 -4 -38
-42 -38 -24 0 -22 -6 5 -16 15 -6 29 -5 45 5 l22 14 0 -314 c0 -273 2 -317 16
-330 22 -22 70 -20 94 4 19 19 20 34 21 328 1 169 2 323 2 342 0 19 0 126 -1
236 -2 176 -4 204 -19 222 -20 23 -50 33 -73 25z"/>
<path d="M1514 1270 c-12 -5 -25 -13 -28 -18 -3 -6 -15 -8 -26 -5 -17 5 -18 1
-13 -30 4 -30 1 -40 -22 -61 -39 -36 -27 -55 13 -21 l33 27 -6 -38 c-50 -355
-27 -465 132 -650 41 -47 52 -54 84 -54 42 0 62 19 62 59 0 20 -17 49 -58 97
-111 132 -128 205 -101 445 9 79 17 161 18 181 1 32 4 36 18 28 26 -14 31 -1
9 21 -18 18 -37 22 -32 7 2 -4 -10 0 -25 8 -31 16 -30 16 -58 4z"/>
</g>
</svg>
