<?xml version="1.0" standalone="no"?>
<!DOCTYPE svg PUBLIC "-//W3C//DTD SVG 20010904//EN" "http://www.w3.org/TR/2001/REC-SVG-20010904/DTD/svg10.dtd">
<svg version="1.0" xmlns="http://www.w3.org/2000/svg"
    width="100%" height="100%" viewBox="0 0 256 256"
    preserveAspectRatio="xMidYMid meet">
    <g transform="translate(0,256) scale(0.100000,-0.100000)"
        fill="#000000" stroke="none">
        <path
            d="M17 2542 c-15 -17 -17 -69 -17 -544 l0 -526 30 -25 c25 -21 45 -26
127 -34 235 -20 751 0 836 33 13 4 16 -11 19 -96 2 -87 6 -104 22 -116 29 -21
70 -17 93 8 18 21 21 40 26 183 6 170 20 242 62 327 32 64 32 91 -1 117 -34
27 -57 26 -88 -1 -28 -25 -90 -170 -100 -234 -7 -40 -8 -40 -64 -52 -122 -26
-208 -32 -504 -32 l-308 0 0 444 0 443 120 5 c79 3 125 10 136 19 25 20 36 57
24 80 -10 18 -23 19 -204 19 -174 0 -195 -2 -209 -18z" />
        <path
            d="M477 2554 c-13 -14 -7 -51 14 -78 19 -24 25 -26 107 -26 233 0 557
-33 739 -75 89 -20 248 -72 294 -95 47 -25 47 -21 55 -482 l7 -366 -116 -121
c-105 -108 -117 -124 -117 -156 0 -52 11 -69 111 -170 l90 -91 -11 -69 c-11
-79 -17 -113 -30 -170 -27 -117 -6 -155 99 -174 145 -28 382 -136 533 -242 19
-14 44 -19 90 -19 36 0 67 -3 70 -6 10 -9 -11 -68 -29 -81 -12 -9 -67 -13
-188 -13 -170 0 -172 0 -199 -25 -21 -19 -27 -33 -24 -58 l3 -32 228 -3 228
-2 35 27 c20 15 49 49 65 77 50 89 35 169 -45 230 -29 22 -45 26 -101 26 -63
0 -72 3 -154 54 -132 80 -351 178 -431 191 -40 7 -42 9 -36 36 3 16 8 57 12
93 l7 64 37 6 c46 7 98 55 107 97 l6 29 159 0 c146 0 162 2 189 21 53 37 61
67 57 211 l-3 130 -44 40 -45 39 -158 -3 -158 -3 0 23 c0 24 -75 106 -89 98
-5 -3 -11 162 -14 367 -4 233 -10 387 -17 413 -15 52 -61 109 -108 133 -55 28
-263 100 -308 107 -21 3 -75 15 -119 27 -73 19 -110 21 -435 25 -196 2 -359 0
-363 -4z m1340 -1306 c14 -16 38 -18 200 -18 l183 0 0 -80 0 -80 -180 0 c-167
0 -181 -1 -200 -20 -13 -13 -20 -33 -20 -57 l0 -38 -97 97 -98 98 95 95 95 96
3 -38 c2 -21 11 -46 19 -55z" />
        <path
            d="M748 1370 c-24 -15 -24 -81 0 -103 10 -9 42 -27 72 -41 l55 -25 -63
0 c-53 -1 -67 -5 -87 -26 -27 -26 -31 -54 -14 -86 15 -29 46 -37 112 -30 31 4
57 4 57 1 0 -3 -16 -14 -36 -25 -53 -28 -94 -70 -94 -94 0 -26 45 -71 70 -71
10 0 52 22 93 50 88 57 103 85 69 128 -11 15 -27 26 -37 24 -16 -3 -16 -2 -1
20 22 31 20 64 -4 88 -13 13 -16 20 -7 20 8 0 22 15 32 34 18 32 18 35 1 60
-32 49 -179 100 -218 76z" />
        <path
            d="M1049 1162 l-32 -29 12 -94 c7 -52 21 -130 31 -174 10 -44 26 -121
34 -170 8 -50 22 -110 31 -134 22 -64 19 -114 -11 -172 -23 -43 -27 -63 -26
-135 0 -73 3 -90 27 -130 33 -56 89 -112 118 -119 12 -3 170 -4 352 -2 l329 2
15 27 c14 25 14 29 -5 55 -19 25 -31 29 -110 40 -49 6 -114 17 -146 23 -49 9
-67 7 -135 -11 -46 -13 -110 -22 -156 -23 -78 -1 -79 -1 -112 36 -50 54 -55
108 -18 190 40 89 38 160 -9 363 -31 137 -44 208 -74 413 -4 23 -14 39 -37 52
-41 25 -41 25 -78 -8z" />
    </g>
</svg>