<?xml version="1.0" standalone="no"?>
<!DOCTYPE svg PUBLIC "-//W3C//DTD SVG 20010904//EN" "http://www.w3.org/TR/2001/REC-SVG-20010904/DTD/svg10.dtd">
<svg version="1.0" xmlns="http://www.w3.org/2000/svg"
    width="100%" height="100%" viewBox="0 0 256 256"
    preserveAspectRatio="xMidYMid meet">
    <g transform="translate(0.000000,256.000000) scale(0.100000,-0.100000)"
        fill="#000000" stroke="none">
        <path
            d="M1010 2558 c0 -37 -34 -176 -46 -189 -9 -10 -62 -45 -118 -78 -99
-59 -182 -94 -296 -125 -113 -31 -201 -115 -234 -221 -9 -27 -36 -240 -61
-471 l-45 -421 -35 -59 c-103 -170 -163 -447 -172 -786 l-6 -208 170 0 170 0
76 158 c128 266 198 471 218 642 6 52 17 113 24 135 l13 40 11 -28 c25 -64 6
-500 -28 -617 -22 -78 -45 -287 -35 -314 5 -14 28 -16 145 -16 l139 0 0 34 c0
51 -21 66 -91 66 l-59 0 0 43 c1 43 23 164 33 173 17 17 147 -83 197 -151 35
-47 45 -55 74 -55 39 0 66 26 66 62 0 33 -65 121 -129 174 -27 22 -79 56 -115
75 l-66 34 7 231 c6 214 5 236 -15 310 -18 67 -28 124 -46 261 -3 21 -2 21 25
7 39 -20 75 -18 99 6 39 39 21 92 -37 111 -25 8 -74 48 -144 116 -60 59 -114
103 -125 103 -35 0 -64 -29 -64 -63 0 -24 13 -45 50 -86 41 -44 50 -60 50 -90
0 -72 -57 -337 -82 -385 -6 -11 -15 -60 -19 -109 -16 -168 -88 -392 -208 -643
l-60 -124 -57 0 -57 0 6 153 c12 304 68 523 186 727 17 29 28 105 66 470 39
371 49 442 68 480 31 64 90 104 179 124 41 9 102 30 137 46 54 26 74 30 146
30 113 0 136 -6 190 -51 75 -62 140 -47 133 29 -2 30 -12 44 -56 79 -29 24
-73 49 -96 55 l-43 11 30 43 c18 25 35 68 42 101 l12 58 151 3 c117 2 153 0
156 -10 2 -7 9 -35 15 -63 6 -27 24 -68 40 -91 l28 -41 -43 -11 c-23 -6 -67
-31 -96 -55 -44 -35 -54 -49 -56 -79 -7 -76 58 -91 133 -29 55 45 77 51 192
51 70 0 92 -4 134 -25 48 -25 199 -71 267 -82 41 -7 72 18 72 58 0 36 -36 64
-109 85 -130 37 -182 59 -289 121 -126 73 -146 95 -156 176 -4 29 -10 62 -13
75 l-5 22 -269 0 c-148 0 -269 -1 -269 -2z" />
        <path
            d="M2132 2004 c-24 -17 -29 -55 -12 -99 5 -14 30 -220 55 -458 33 -316
50 -440 62 -462 71 -128 95 -182 118 -260 40 -139 66 -305 72 -472 l6 -153
-57 0 -57 0 -63 133 c-125 262 -206 518 -206 651 0 25 -9 69 -19 98 -31 85
-49 157 -66 258 -23 145 -22 149 35 211 37 41 50 62 50 86 0 35 -29 63 -64 63
-12 0 -62 -41 -121 -100 -56 -55 -118 -106 -138 -115 -25 -10 -71 -15 -147
-15 -121 0 -165 12 -212 57 -27 26 -28 30 -28 139 0 125 -8 144 -60 144 -52 0
-60 -19 -60 -144 0 -109 -1 -113 -27 -139 -39 -36 -94 -57 -153 -57 -80 0
-122 -54 -84 -108 13 -19 24 -22 84 -22 76 0 142 19 202 56 l38 24 38 -24 c73
-48 128 -58 284 -54 109 3 150 7 174 20 l31 17 -14 -97 c-7 -53 -23 -135 -34
-182 -20 -79 -21 -101 -15 -315 l6 -230 -64 -33 c-36 -18 -85 -50 -111 -69
-62 -49 -135 -147 -135 -182 0 -36 28 -61 68 -61 26 0 38 9 71 54 22 29 57 66
78 83 55 43 113 76 120 69 9 -9 32 -136 33 -178 l0 -38 -413 0 c-395 0 -415
-1 -431 -19 -10 -11 -16 -31 -14 -48 l3 -28 492 -3 c475 -2 492 -2 498 17 9
31 -13 232 -36 312 -33 119 -53 552 -28 616 l11 28 13 -35 c6 -19 15 -67 18
-107 17 -180 86 -388 224 -675 l76 -158 169 0 168 0 0 144 c0 359 -78 717
-191 877 -15 22 -27 104 -64 450 -25 233 -50 440 -55 460 -21 78 -69 108 -118
73z" />
        <path
            d="M904 1970 c-32 -13 -38 -28 -44 -104 l-5 -69 -35 64 c-33 60 -38 64
-73 67 -21 2 -45 -2 -53 -9 -25 -21 -15 -80 24 -149 35 -60 41 -65 76 -68 45
-4 66 11 67 47 0 26 0 26 11 3 15 -30 55 -39 88 -20 24 14 27 13 43 -9 22 -28
77 -32 99 -5 28 33 78 132 78 155 0 32 -30 57 -67 57 -36 0 -50 -15 -92 -95
l-31 -60 0 80 c0 86 -3 96 -37 114 -25 13 -21 12 -49 1z" />
        <path
            d="M1605 1968 c-31 -18 -35 -28 -35 -113 l-1 -80 -31 60 c-41 80 -55 95
-93 95 -36 0 -65 -26 -65 -58 0 -22 51 -122 78 -154 22 -27 77 -23 99 5 16 22
19 23 43 9 33 -19 73 -10 88 20 11 23 11 23 11 -3 1 -36 22 -51 67 -47 35 3
41 8 76 68 40 69 49 128 24 149 -8 7 -32 11 -53 9 -36 -3 -40 -7 -73 -68 l-35
-65 -5 72 c-5 74 -16 95 -55 107 -11 3 -29 0 -40 -6z" />
        <path
            d="M817 1518 c-27 -10 -42 -40 -35 -74 9 -48 121 -82 158 -49 20 18 26
60 12 81 -20 30 -97 54 -135 42z" />
        <path
            d="M1689 1520 c-33 -9 -72 -30 -81 -44 -14 -21 -8 -63 12 -81 37 -33
149 1 158 49 11 53 -34 91 -89 76z" />
        <path
            d="M1240 1199 c-14 -5 -85 -69 -157 -142 -144 -142 -156 -163 -133 -232
13 -39 59 -75 98 -75 22 0 22 0 22 -168 0 -183 4 -198 60 -227 41 -21 259 -21
300 0 56 29 60 44 60 227 0 163 1 168 20 168 63 0 117 71 106 138 -4 29 -29
60 -133 165 -149 150 -182 170 -243 146z m137 -221 l93 -93 -42 -10 c-63 -15
-68 -31 -68 -232 l0 -173 -80 0 -80 0 0 173 c0 202 -5 217 -68 231 l-43 10 93
93 c51 51 95 93 98 93 2 0 46 -42 97 -92z" />
    </g>
</svg>