<?xml version="1.0" standalone="no"?>
<!DOCTYPE svg PUBLIC "-//W3C//DTD SVG 20010904//EN" "http://www.w3.org/TR/2001/REC-SVG-20010904/DTD/svg10.dtd">
<svg version="1.0" xmlns="http://www.w3.org/2000/svg"
    width="100%" height="100%" viewBox="0 0 256 256"
    preserveAspectRatio="xMidYMid meet">

    <g transform="translate(0.000000,256.000000) scale(0.100000,-0.100000)"
        fill="#000000" stroke="none">
        <path
            d="M37 2542 c-15 -17 -17 -69 -17 -549 0 -440 2 -533 14 -542 42 -35
664 -40 861 -7 137 23 125 31 125 -79 0 -82 3 -98 20 -115 25 -25 52 -26 72
-2 12 13 17 53 22 162 7 170 24 260 66 347 33 67 31 91 -10 113 -51 27 -104
-49 -142 -205 l-21 -83 -101 -16 c-187 -28 -373 -39 -580 -32 -109 3 -202 9
-207 12 -5 3 -9 205 -9 453 l0 448 68 6 c37 4 93 7 125 7 77 0 111 32 91 84
-5 14 -31 16 -184 16 -159 0 -179 -2 -193 -18z" />
        <path
            d="M485 2540 c-11 -35 4 -59 43 -69 20 -5 125 -11 232 -14 293 -9 536
-45 741 -113 126 -42 166 -64 180 -102 7 -16 13 -164 16 -377 5 -290 2 -407
-16 -685 -12 -184 -31 -401 -42 -482 -24 -170 -21 -183 43 -193 134 -22 364
-121 529 -226 75 -49 81 -50 140 -47 74 4 90 -11 69 -61 -22 -53 -53 -62 -238
-68 -178 -6 -202 -13 -202 -58 0 -42 14 -45 215 -45 163 0 196 3 230 19 132
61 156 242 43 311 -23 14 -51 20 -92 20 -52 0 -67 5 -140 49 -151 91 -331 171
-452 201 l-41 10 18 117 c10 65 20 192 24 283 3 91 11 203 16 250 29 252 18
946 -16 1028 -33 77 -75 105 -244 163 -228 78 -452 109 -791 109 -250 0 -259
-1 -265 -20z" />
        <path
            d="M1053 1158 c-6 -7 -12 -20 -15 -29 -9 -23 37 -299 77 -473 19 -83 35
-165 35 -182 0 -18 -12 -58 -27 -90 -65 -138 -20 -287 109 -367 36 -22 225
-23 317 -2 59 14 77 14 198 -1 128 -17 133 -17 153 1 11 10 20 28 20 40 0 46
-18 54 -171 74 l-146 20 -94 -24 c-124 -32 -184 -32 -230 -1 -70 48 -87 133
-45 227 41 91 41 118 1 294 -20 88 -49 235 -64 327 -16 92 -34 175 -41 183
-15 18 -64 20 -77 3z" />
    </g>
</svg>