<?xml version="1.0" standalone="no"?>
<!DOCTYPE svg PUBLIC "-//W3C//DTD SVG 20010904//EN"
 "http://www.w3.org/TR/2001/REC-SVG-20010904/DTD/svg10.dtd">
<svg version="1.0" xmlns="http://www.w3.org/2000/svg"
    width="100%" height="100%" viewBox="0 0 256 256"
 preserveAspectRatio="xMidYMid meet">

<g transform="translate(0.000000,256.000000) scale(0.100000,-0.100000)"
fill="#000000" stroke="none">
<path d="M615 2540 c-10 -11 -21 -37 -24 -58 l-6 -37 -183 -6 c-243 -9 -288
-15 -307 -42 -13 -18 -15 -76 -15 -374 0 -340 1 -354 20 -373 25 -25 55 -25
80 0 19 19 20 33 20 340 l0 320 23 5 c12 2 99 6 192 7 l170 3 3 -73 c2 -62 0
-73 -15 -78 -59 -17 -89 -40 -102 -80 -12 -34 -12 -47 -2 -71 7 -17 72 -89
145 -162 122 -121 136 -131 170 -131 56 0 81 18 214 153 121 124 122 126 122
172 0 40 -5 52 -34 81 -21 21 -44 34 -60 34 -26 0 -26 1 -26 70 0 39 3 70 8
70 38 0 289 -44 372 -65 112 -28 142 -26 155 15 11 35 -19 67 -80 85 -94 27
-235 54 -347 67 l-108 12 0 36 c0 19 -9 50 -20 68 l-20 32 -163 0 c-151 0
-165 -2 -182 -20z m273 -265 c3 -213 4 -215 74 -215 21 0 38 -3 38 -7 0 -12
-193 -203 -205 -203 -11 0 -205 191 -205 202 0 5 17 8 37 8 70 0 73 10 73 215
0 100 3 185 7 189 4 4 46 5 93 4 l85 -3 3 -190z"/>
<path d="M1602 2258 c-24 -24 -14 -70 21 -102 31 -28 34 -37 40 -106 15 -173
19 -577 8 -795 -13 -263 -23 -370 -52 -578 -15 -101 -18 -155 -12 -169 7 -17
30 -27 99 -44 49 -12 124 -35 167 -52 84 -34 119 -32 132 7 17 54 -27 85 -198
138 -77 24 -87 30 -83 48 8 31 34 246 46 375 16 166 24 818 12 1007 -8 139
-13 167 -33 203 -37 65 -114 101 -147 68z"/>
<path d="M1147 1769 c-25 -15 -66 -100 -88 -187 -10 -41 -21 -77 -23 -79 -11
-11 -190 -33 -351 -44 -124 -8 -226 -9 -330 -3 l-150 9 -6 39 c-10 63 -59 86
-99 46 -16 -16 -20 -33 -20 -84 0 -97 10 -105 145 -118 143 -13 581 -3 700 16
50 9 93 15 96 16 3 0 9 -69 12 -152 9 -213 33 -368 98 -650 27 -117 28 -130
15 -165 -8 -21 -22 -58 -31 -83 -39 -102 0 -226 93 -297 44 -33 44 -33 160
-33 70 0 139 6 171 15 47 12 67 12 155 0 67 -10 191 -15 369 -15 243 0 271 2
305 19 20 10 44 27 53 37 53 60 68 154 34 212 -27 45 -94 76 -148 69 -37 -5
-50 0 -114 40 -79 49 -112 52 -134 12 -21 -39 -3 -63 85 -117 78 -48 90 -52
146 -52 45 0 62 -4 66 -15 11 -28 -6 -65 -39 -82 -47 -25 -367 -25 -577 1
l-155 19 -93 -21 c-117 -27 -168 -28 -210 -2 -32 20 -71 86 -72 122 0 9 14 51
31 94 38 94 37 118 -14 339 -67 297 -95 566 -77 746 11 112 38 219 64 254 23
30 20 71 -6 89 -26 18 -36 19 -61 5z"/>
<path d="M842 1278 c-22 -22 -13 -63 31 -128 35 -54 47 -66 73 -68 34 -3 64
18 64 46 0 10 -19 49 -43 87 -39 62 -47 70 -78 73 -19 2 -40 -3 -47 -10z"/>
<path d="M594 1262 c-15 -9 -74 -139 -74 -162 0 -24 32 -50 63 -50 31 0 44 17
82 108 24 60 25 66 10 88 -15 24 -57 32 -81 16z"/>
<path d="M719 1239 c-19 -19 -20 -28 -14 -97 8 -87 25 -122 58 -122 51 0 59
18 56 119 -3 78 -7 95 -23 107 -28 20 -52 18 -77 -7z"/>
</g>
</svg>
