<?xml version="1.0" standalone="no"?>
<!DOCTYPE svg PUBLIC "-//W3C//DTD SVG 20010904//EN" "http://www.w3.org/TR/2001/REC-SVG-20010904/DTD/svg10.dtd">
<svg version="1.0" xmlns="http://www.w3.org/2000/svg"
    width="100%" height="100%" viewBox="0 0 256 256"
    preserveAspectRatio="xMidYMid meet">
    
    <g transform="translate(0.000000,256.000000) scale(0.100000,-0.100000)"
        fill="#000000" stroke="none">
        <path
            d="M114 2340 l-91 -99 4 -53 c4 -53 5 -54 119 -166 l115 -114 -15 -33
c-21 -44 -20 -81 4 -120 38 -62 70 -69 274 -61 195 7 206 10 249 69 18 24 20
41 18 203 -2 196 -9 223 -60 267 -39 33 -90 36 -135 7 l-32 -19 -109 109 -110
110 -70 0 -70 0 -91 -100z m298 -155 c142 -138 160 -146 210 -98 l28 27 0
-137 0 -137 -38 0 c-22 0 -81 -3 -132 -7 l-94 -6 22 28 c43 55 35 71 -113 211
l-136 127 58 59 c31 32 59 58 61 58 3 0 63 -56 134 -125z" />
        <path
            d="M2280 2410 c0 -6 -28 -10 -63 -10 l-64 0 -98 -101 c-92 -94 -98 -99
-115 -84 -29 27 -90 29 -127 6 -64 -40 -68 -55 -68 -261 0 -164 2 -189 19
-216 36 -60 54 -64 267 -64 189 0 193 0 225 25 55 42 68 122 26 168 -15 17 -9
25 101 135 l117 117 0 59 0 59 -87 88 c-60 61 -94 89 -110 89 -13 0 -23 -4
-23 -10z m33 -168 l57 -57 -121 -120 c-103 -103 -149 -158 -149 -179 0 -3 13
-20 29 -38 l29 -33 -137 2 -136 2 -3 138 -3 137 29 -27 c52 -50 70 -42 211
101 69 71 128 129 131 130 3 1 31 -24 63 -56z" />
        <path
            d="M935 2176 c-22 -22 -24 -32 -24 -115 0 -106 -11 -154 -54 -234 -49
-93 -124 -154 -263 -216 -65 -29 -143 -68 -172 -88 -163 -111 -263 -312 -248
-500 3 -41 20 -113 37 -165 27 -79 33 -111 37 -216 4 -116 5 -123 29 -142 35
-27 49 -25 85 10 l30 31 -4 122 c-4 104 -10 135 -36 211 -41 114 -49 191 -28
279 20 87 47 138 104 199 38 41 76 64 210 130 171 83 171 83 315 234 44 47 94
195 98 291 l2 53 197 0 197 0 7 -62 c10 -97 67 -138 122 -87 21 20 22 26 17
133 -8 168 18 156 -340 156 l-294 0 -24 -24z" />
        <path
            d="M1540 1840 c-11 -11 -20 -28 -20 -37 0 -54 97 -176 190 -240 25 -17
103 -57 174 -88 145 -66 214 -122 259 -211 62 -122 65 -226 12 -394 -32 -99
-37 -129 -38 -215 -1 -87 4 -117 36 -230 35 -124 67 -267 67 -303 0 -15 -15
-17 -140 -14 l-140 3 5 147 c3 81 10 252 16 380 l11 233 -23 25 c-12 13 -33
24 -46 24 -34 0 -73 -43 -73 -79 0 -17 -4 -108 -10 -203 -5 -95 -11 -253 -14
-351 l-4 -178 -226 -2 -226 -2 0 138 c0 133 -1 139 -25 162 -32 32 -50 31 -86
-4 l-29 -29 0 -134 0 -133 -229 0 -228 0 -7 240 c-4 132 -11 305 -17 385 -9
126 -13 148 -31 167 -28 30 -63 29 -94 -3 -25 -24 -26 -29 -20 -102 11 -127
26 -469 26 -582 l0 -105 -164 3 c-148 3 -164 5 -161 20 2 9 16 75 31 145 l27
128 -23 24 c-29 30 -72 33 -98 5 -32 -35 -89 -314 -83 -412 1 -17 61 -18 1111
-18 1041 0 1111 1 1117 17 12 30 -25 243 -68 398 -57 202 -57 281 -4 440 33
96 37 122 37 205 0 71 -5 111 -22 160 -62 184 -169 292 -385 386 -130 57 -192
101 -253 183 -45 60 -57 71 -82 71 -17 0 -39 -9 -50 -20z" />
        <path
            d="M1235 1626 l-24 -24 -1 -545 0 -544 25 -27 c29 -31 53 -33 89 -5 l26
20 0 553 0 553 -23 21 c-30 29 -62 28 -92 -2z" />
        <path
            d="M992 1273 c-7 -3 -19 -17 -26 -32 -13 -23 -12 -48 6 -191 31 -262 16
-343 -88 -466 -72 -85 -78 -97 -60 -133 31 -60 71 -55 137 17 161 177 188 281
151 595 -18 146 -23 172 -43 193 -21 23 -48 29 -77 17z" />
        <path
            d="M1503 1265 c-23 -16 -23 -15 -53 -245 -18 -138 -20 -177 -11 -237 14
-97 54 -182 130 -276 65 -80 86 -97 119 -97 24 0 62 41 62 67 0 12 -27 54 -60
95 -118 144 -129 193 -99 460 l23 198 -24 25 c-27 28 -56 32 -87 10z" />
    </g>
</svg>