<?xml version="1.0" standalone="no"?>
<!DOCTYPE svg PUBLIC "-//W3C//DTD SVG 20010904//EN" "http://www.w3.org/TR/2001/REC-SVG-20010904/DTD/svg10.dtd">
<svg version="1.0" xmlns="http://www.w3.org/2000/svg"
    width="100%" height="100%" viewBox="0 0 256 256"
    preserveAspectRatio="xMidYMid meet">

    <g transform="translate(0.000000,256.000000) scale(0.100000,-0.100000)"
        fill="#000000" stroke="none">
        <path
            d="M836 2544 c-3 -9 -15 -28 -27 -43 -40 -52 -149 -202 -149 -206 0 -2
-29 -44 -65 -92 -35 -48 -75 -103 -87 -121 -13 -18 -37 -52 -54 -75 -27 -35
-32 -54 -37 -118 -4 -42 -14 -113 -23 -157 -9 -45 -14 -88 -11 -95 5 -12 123
-35 132 -25 2 2 13 73 25 158 l23 155 175 245 c97 135 177 246 178 248 4 6
224 -109 224 -117 0 -20 -17 -16 -82 20 -39 21 -76 39 -82 38 -6 0 -23 -25
-37 -55 l-26 -55 36 -23 c20 -13 45 -26 56 -30 32 -10 68 -42 61 -54 -4 -6
-33 4 -77 29 -73 40 -99 47 -99 29 0 -6 -11 -28 -25 -50 -14 -22 -25 -44 -25
-48 0 -5 34 -27 75 -48 83 -43 84 -52 10 -85 -31 -14 -65 -19 -153 -19 l-113
0 3 -72 3 -73 56 0 57 0 6 -54 c4 -30 15 -87 26 -128 10 -40 24 -108 30 -151
6 -42 15 -95 21 -117 25 -96 48 -215 54 -280 10 -96 -5 -147 -53 -182 -20 -15
-41 -30 -45 -34 -5 -4 -1 -34 9 -68 18 -66 28 -70 78 -35 10 7 25 10 32 7 8
-3 14 1 14 9 0 8 13 26 28 41 35 34 71 104 79 154 9 59 28 87 85 126 74 51
194 88 299 95 l87 5 5 61 c2 33 2 64 0 69 -6 10 -79 9 -170 -4 -86 -12 -208
-55 -277 -100 l-46 -28 -5 22 c-3 12 -31 154 -63 315 -44 222 -55 292 -45 292
60 0 192 121 240 220 17 36 59 123 93 193 34 71 58 132 54 137 -5 4 -88 49
-185 99 -160 82 -182 91 -232 91 -41 0 -56 -4 -61 -16z" />
        <path
            d="M2435 1532 c-108 -101 -156 -142 -169 -142 -7 0 -37 5 -68 11 -105
21 -268 -29 -359 -110 l-44 -39 -55 28 c-30 15 -76 30 -101 34 l-46 7 -7 -47
c-11 -86 -10 -91 32 -98 59 -9 131 -52 197 -117 33 -32 66 -59 72 -59 6 0 30
22 52 49 l41 49 -40 36 -39 35 32 25 c62 46 100 59 183 64 56 3 98 -1 134 -11
l53 -16 128 115 c92 82 129 122 129 137 0 21 -54 97 -68 97 -4 0 -30 -22 -57
-48z" />
        <path
            d="M356 1493 c-4 -43 -14 -116 -23 -163 -23 -125 -21 -308 6 -465 33
-197 59 -274 110 -328 14 -15 26 -35 26 -44 0 -9 6 -18 14 -21 10 -3 12 0 8
11 -3 9 19 -1 53 -24 33 -22 70 -43 84 -49 13 -5 71 -30 127 -56 137 -63 191
-74 400 -81 196 -6 197 -6 366 73 40 19 75 34 79 34 4 0 22 12 41 26 19 14 37
23 40 20 3 -3 24 -45 47 -93 158 -335 157 -333 196 -333 19 0 49 9 67 20 l32
19 -59 123 c-32 68 -84 175 -115 238 -53 106 -55 115 -39 127 10 7 26 13 36
13 10 0 61 -50 120 -119 57 -66 110 -120 118 -120 8 0 34 18 58 40 l43 40 -86
98 c-128 147 -159 178 -200 191 -60 20 -143 -3 -198 -53 -7 -7 -27 -22 -44
-35 -27 -19 -31 -19 -26 -5 5 13 -2 10 -26 -10 -18 -15 -38 -27 -44 -27 -8 0
-8 -3 1 -8 8 -6 -21 -25 -89 -56 -132 -62 -194 -71 -411 -58 -136 9 -173 14
-218 34 -30 13 -90 35 -133 48 -42 13 -84 31 -92 39 -92 102 -95 107 -119 208
-35 145 -46 229 -46 357 0 98 29 373 46 428 5 17 -6 21 -97 34 l-46 6 -7 -79z" />
        <path
            d="M263 490 c-33 -20 -49 -55 -40 -90 3 -13 -3 -24 -19 -35 -39 -26 -27
-85 18 -85 10 0 38 10 63 21 49 23 64 53 46 87 -10 19 -5 18 65 -9 41 -16 82
-29 91 -29 8 0 13 -6 11 -12 -3 -7 -15 -44 -28 -83 -22 -67 -40 -103 -40 -77
0 6 -11 19 -24 27 -23 15 -29 14 -135 -39 -61 -31 -114 -56 -119 -56 -4 0 -18
21 -30 47 -21 44 -21 49 -6 58 25 15 54 44 54 54 0 5 -9 19 -19 32 -18 22 -21
23 -58 10 -53 -19 -93 -58 -93 -93 0 -35 63 -167 91 -190 33 -28 72 -22 173
28 l94 46 21 -21 c53 -53 116 -30 154 58 14 31 35 91 48 134 21 73 21 80 7
110 -14 29 -30 38 -137 80 -67 26 -129 47 -139 47 -9 0 -32 -9 -49 -20z" />
    </g>
</svg>